<?xml version="1.0" encoding="utf-8"?>
<!-- Generator: Adobe Illustrator 24.2.0, SVG Export Plug-In . SVG Version: 6.00 Build 0)  -->
<svg version="1.1" id="Capa_1" xmlns="http://www.w3.org/2000/svg" xmlns:xlink="http://www.w3.org/1999/xlink" x="0px" y="0px"
	 viewBox="0 0 1472.6 2642.9" style="enable-background:new 0 0 1472.6 2642.9;" xml:space="preserve">
<style type="text/css">
	.st0{fill:none;stroke:#303638;stroke-width:8.035216e-03;stroke-miterlimit:11.3386;}
</style>
<desc>made with tinkercad</desc>
<path class="st0" d="M1384.9,2417.3l2.7,3.4l1.9,2.4l3.6,5.7l0.8,1.2l3.3,6.4l2,4.8l0.7,2.4l0.1,0.4l0.3,1.2l0.1,1.3v1.4l-0.1,1.4
	l-0.1,13.3l-0.4,4.6l-0.3,3.4l-1,5.4l-1.3,4.6l-1.7,4.2l-2.1,4.1l-1,1.5l-1.6,2.3l-2.8,3.3l-3,2.9l-2.6,2l-0.6,0.5l-1,0.6l-2.4,1.5
	l-3.4,1.6l-3.5,1.3l-1.6,0.4l-2.1,0.5l-4.4,0.6l-5.8,0.2l-11-0.8l-12.3-0.9l-2.8,0.1l-2.3,0.3l-2.3,0.6l-3.5,1.2l-0.3,0.1l-8,3.3
	l-4.1,1.4l-0.6,0.1l-2.7,0.6l-3,0.4l-2.8,0.1l-1.8-0.1l-0.9-0.1l-2.5-0.4l-2.3-0.6l-0.3-0.1l-2.5-0.9l-2.5-1.2l-2.4-1.5l-2.4-1.9
	l-2.6-2.4l-3.2-3.6l-0.4-0.4l-1.4-1.9l-1.6-2.3v4.6v1.4v10.2v2.9h-8.5v-2.9v-10.2v-1.4v-11.6v-7.2v-0.4l-0.7-1.5l-1-2.6l-1-2.6
	l-1.1-3.9l-0.6-3l-0.2-2.1v-0.3v-1.5l0.1-1.9l0.3-2.1l0.5-2l0.7-1.8l0.9-1.7l0.1-0.2l0.7-1.1l0.2-0.2l1.1-1.4l1.3-1.3l1.4-1.2l1.5-1
	l1.5-0.8l2-0.9l1.4-0.6l0.5-0.4l0.6-0.8l0.2-0.3l1.1-1.7l0.6-0.9l0.5-1l2.2-3.9l1.5-3.4l0.6-1.9l1.3-4.6l1.4-3.5l1.9-3.5l0.4-0.6
	l2.2-3.3l2.8-3.3l2.8-2.8l3.4-2.9l0.1-0.1l4.1-2.7l1.1-0.6l3.5-1.8l5-2h0.1l5.5-1.6l3.9-0.7l3.4-0.6l7.8-0.6l8.5,0.2l3.6,0.4
	l3.7,0.4l6.7,1.5l6.5,2.2l5.1,2.3l1.2,0.7l3.3,1.9l4,2.9l3.8,3.3L1384.9,2417.3 M1048.8,2171.4h22.8h10.6v13.8v46.4v3.6h-10.6h-22.8
	v-3.6v-46.4V2171.4 M1037.5,2232h-12.3h-22.4v-0.4v-46.4v-9.8h22.4h12.3v9.8v46.4V2232 M1376.7,2429.6l-6.8-3.5l-10.6-5.5l-12.7-6.6
	l-2.3-1.2h-8.5v7.8v0.8l-12.4,1.2l-4.6,0.5h-5v0.5v8.6v11.6v10.1h-8.5v-3.9v-6.3v-11.2l-5.1,3v8.2v1.9l4.9,4.2v17.1v0.1h9.4v11.5
	v1.5h-7.9l-1.9,0.1l-1.3-0.1h-0.6l-1.9-0.3l-0.9-0.2l-1-0.3l-1.7-0.6h-0.1l-1.7-0.8l-1.6-1l-1.5-1.2l-1.4-1.3l-1.2-1.4l-1.1-1.5
	l-0.5-0.9l-0.4-0.7l-1.3-2.7l-2.4-4.8l-7.5,3.4l-0.2,0.1l0.2,0.5l0.3,0.7l5.2,11.6l4.5,10h13.2h14.4h8.9h2.5v1.6v8.3h20.8h3.2
	l3.9-6.6h16.1h12.4v-1.7V2467v-23.2v-14.2L1376.7,2429.6 M1371,2520.5v8.5h-1.1h-6.3v-3.8v-4.7h6.3H1371 M1352.3,2520.5v4.7v3.8
	h-5.6h-5.7v-3.8v-4.7h5.7H1352.3 M1329.6,2529h-6.2h-2.4v-3.8v-4.7h2.4h6.2v4.7V2529 M1063.3,2024.9l-2.3,8.2l-5.3-1.5l-23.2-6.6
	l-8.2-2.3l2.3-8.2l0,0l8.2,2.3l20.8,6L1063.3,2024.9 M949,2284.4l1.2,3.5l0,0l0.8,3.6l0.4,3.7v3.7l-0.1,0.6l-0.3,3l-0.8,3.6
	l-1.2,3.5l-0.7,1.5l-0.9,1.8l-1.9,3.2l-2.2,2.9l-2.5,2.7l-2.8,2.4l-0.9,0.6l-2.2,1.5l-3.3,1.7l-3.4,1.4l-3.5,1l-3.6,0.6l-3.7,0.2
	l-3.5-0.2h-0.2l-3.6-0.6l-3.5-1l-3.4-1.4l-3.3-1.7l-3-2.1l-1.6-1.4l-1.2-1l-2.5-2.7l-0.8-1.1l-1.4-1.9l-1.9-3.2l-0.9-1.8l-0.7-1.5
	l-1.2-3.5l-0.8-3.6l-0.4-3.7v-3.7l0.4-3.7l0.8-3.6l0,0l1.2-3.5l1.5-3.3l1.9-3.2l1.4-1.9l0.8-1.1l2.5-2.7l2.8-2.4l3-2.1l3.3-1.7
	l3.4-1.4l0.4-0.1l3.2-0.9l3.6-0.6l3.7-0.2l3.7,0.2l3.6,0.6l3.2,0.9l0.4,0.1l3.4,1.4l3.3,1.7l2.2,1.5l0.9,0.6l2.8,2.4l2.5,2.7
	l2.2,2.9l1.9,3.2L949,2284.4 M1101.5,2014.4v1.5v5.8v1.2H1090h-4.4v-1.2v-7.3h4.4h5.8H1101.5 M1053.6,2384.9l0.1,0.4l1.2,3.3l0.5,2
	l0.5,2.1l0.4,2.9l0.1,1.3v0.7v1.2v9.7v23.2v13v8.1v2.2v23.2v0.1v46.3v15.5l-0.2,2.9l-0.5,2.8l-0.4,1.5l-0.1,0.5l-0.2,0.7l-1.1,2.7
	l-1.3,2.5l-1.6,2.4l-1.9,2.2l-1.2,1.2l-0.9,0.8l-2.3,1.7l-2.5,1.5l-2.6,1.2l-2.7,0.9l-2.8,0.6l-2.1,0.2l-0.7,0.1h-2.9l-2.8-0.3
	l-2.8-0.6l-2.4-0.8l-0.3-0.1l-2.6-1.2l-2.5-1.5l-2.3-1.7l-0.9-0.8l-1.2-1.2l-1.9-2.2l0,0l-1.6-2.4l-1.3-2.5l-1.1-2.7l-0.2-0.7
	l-0.6-2l-0.5-2.8l-0.2-2.9v-15.5v-46.3v-0.1v-10.7l5.4-7.1l4.2-5.5l5.7-7.5l7.5-11l2.6-4.7l0.1-0.1l1.2-2.8l0.7-2.2l0.4-1.7l0.2-1.4
	v-1.1l-0.1-1l-0.1-0.9l-0.1-0.4l-0.1-0.5l-0.3-1l-0.5-1l-0.6-1.1l-1.1-1.5l-1.1-1.3l-5.3-5.3l-1-1l-1.9-2.2l-1.6-2.3l-1.2-2.2
	l-0.9-2.2l-0.5-1.7l-0.1-0.5l-0.5-2.3l-0.2-2.3v-2.3l0.2-2.4l0.4-1.8l0.2-0.8l0.8-2.5l0.9-2.1l1-1.7l1-1.4l1-1.2l1.2-1.1l1-0.8
	l0.2-0.2l1.4-0.9l1.6-0.8l1.7-0.6l1.9-0.5l2.2-0.4l1.3-0.1l1.1-0.1l2.5,0.1l2,0.3l1.9,0.4l1.8,0.6l1.6,0.7l1.7,0.9l0.7,0.5l0.8,0.6
	l1.4,1.3l1.3,1.5l1.3,1.7l1.6,2.6L1053.6,2384.9 M1143.2,2298.8v8.4v0.1h-3.5h-11.6h-0.7v-0.1v-8.4h0.7h11.6H1143.2 M960.4,2366.3
	l0.6,0.5l0.5,0.3l0.4,0.3l1.4,1.3l1.3,1.5l1.3,1.7l1.6,2.6l1.7,3.5l0.2,0.7l1.1,3l1,4.1l0.4,2.9l0.1,1.6v0.4v1.2v21.6v19.5v3.7v23.2
	v46.4v23.2v3.6l-0.2,2.9l-0.5,2.8l-0.6,2.3l-0.1,0.5l-1.1,2.7l-1.3,2.5l-1.6,2.4l-1.9,2.2l-1.5,1.4l-0.6,0.5l-1.7,1.3l-0.5,0.4
	l-2.5,1.5l-2.6,1.2l-2.7,0.9l-2.8,0.6l-0.5,0.1l-2.3,0.3h-2.9l-2.8-0.3l-2.8-0.6l-0.8-0.3l-1.9-0.6l-2.6-1.2l-2.5-1.5l-2.3-1.7
	l-0.6-0.5l-1.5-1.4l-1.9-2.2l-1.6-2.4l-1.3-2.5l-1.1-2.7l-0.1-0.5l-0.6-2.3l-0.5-2.8l-0.2-2.9v-3.6v-23.2v-35v-10.8l0.5-0.7
	l14.8-19.4l2.6-3.8l0.7-1l4.2-6.2l2.5-4.5l0.2-0.4l1.2-2.8l0.7-2.2l0.4-1.7l0.2-1.4v-1.1l-0.1-1l-0.1-0.9v-0.2l-0.2-0.8l-0.3-1
	l-0.5-1l-0.6-1.1l-1.1-1.5l-1.1-1.3l-5-5l-0.3-0.3l-1-1l-1.9-2.2l-1.6-2.3l-1.2-2.2l-0.9-2.2l-0.4-1.4l-0.2-0.7l-0.5-2.3l-0.2-2.3
	v-2.3l0.2-2.4l0.3-1.5l0.2-1l0.8-2.5l0.9-2.1l1-1.7l1-1.4l1-1.2l1.2-1.1l0.7-0.5l0.6-0.4l0.1-0.1l1.2-0.8l1.6-0.8l1.7-0.6l1.9-0.5
	l2.2-0.4l2.4-0.2h0.5l2,0.1l2,0.3l1.9,0.4l1.8,0.6l1.6,0.7L960.4,2366.3 M1048.8,2273.4h13.2h20.2v6.4v57.4H1062h-13.2v-11v-46.4
	V2273.4 M1037.5,2277.3v2.5v46.4v7.8h-21.9h-12.8v-7.8v-46.4v-2.5h12.8H1037.5 M1391.8,1938.1l3.8,3.3l0,0l2.5,2.6l1.4,1.4l4.6,5.8
	l4.4,6.9l3.3,6.4l0.1,0.1l1.9,4.6l0.7,2.4l0.3,1.6l0.1,1.3v1.4l-0.1,1.4l-0.1,10.5v2.7l-0.8,8l-1,5.4l-1.3,4.6l-1,2.4l-0.7,1.8
	l-2.1,4.1l-2.5,3.8l-2.8,3.3l-3,2.9l-1.4,1.1l-1.2,0.9l-0.6,0.5l-3.3,2l-3.4,1.6l-3.2,1.1l-0.3,0.1l-3.6,0.9l-4.4,0.6l-3.1,0.1
	l-2.7,0.1l-20.6-1.4l-2.7-0.2l-2.8,0.1l-2.3,0.3l-2.3,0.6l-3.7,1.3l-8,3.3l-1.3,0.5l-2.7,0.9l-3.3,0.8l-3,0.4l-2.8,0.1l-2.6-0.2
	l-2.5-0.4l-2.6-0.7l-2.5-0.9l-1.1-0.6l-1.4-0.7l-2.4-1.5l-2.4-1.9l-1.9-1.7l-0.7-0.7l-3.6-4l-4.9-6.8l-0.1-0.1l-3.6-5.9l-0.1-0.1
	l-2.3-4.7l-1.3-2.6l-2-5.1l-1.1-3.9l-0.6-3l-0.3-2.5v-1.5l0.1-1.9l0.3-2.1l0.4-1.5l0.1-0.5l0.7-1.8l0.9-1.7l1-1.5l1.1-1.4l0.7-0.7
	l0.6-0.6l1.4-1.2l1.5-1l1.5-0.8l0.7-0.3l1.3-0.6l1.4-0.6l0.5-0.4l0.9-1l1.8-2.6l2.7-4.8l0.7-1.6l0.8-1.8l0.6-1.9l1.3-4.6l1.4-3.5
	l1.9-3.5l2.2-3.3l0.4-0.6l2.8-3.3l0.7-0.7l2.1-2.1l3.4-2.9l4.2-2.8l4.6-2.4l5-2h0.1l5.5-1.6l7.3-1.3l7.8-0.6h2.5l5.9,0.1l7.4,0.9
	l6.7,1.5l3.3,1.1l3.3,1.1l5.1,2.3l4.5,2.6L1391.8,1938.1 M1023.7,2542.4v0.6l0.1,0.6l0.2,0.6l0.2,0.6l0.3,0.5l0.3,0.5l0.4,0.5
	l0.4,0.4l0.5,0.4l0.2,0.1l0.4,0.2l0.6,0.3l0.6,0.2l0,0l0.6,0.1l0.6,0.1h0.6l0.6-0.1l0.6-0.1l0,0l0.6-0.2l0.6-0.3l0.1-0.1l0.4-0.2
	l0.5-0.4l0.4-0.4l0.4-0.5l0.3-0.5l0.3-0.5l0.2-0.6l0.2-0.6l0.1-0.6v-0.6h8.7h2.9v-6.1v-11.6v-46.3H1012v46.3v11.6v6.1h8.5H1023.7
	L1023.7,2542.4 M326.4,2279.9l1.2,0.8l1.2,0.8l2.2,1.9l1.6,1.7l0.4,0.4l1.8,2.4l1.5,2.5l1.2,2.7l0.9,2.8l0.6,2.9l0.3,2.9v2.2v0.8
	l-0.2,1.7l-0.1,1.2l-0.7,2.9l-1,2.8l-1.3,2.7l-3.6,11.5l-0.2,0.5l-2.5,12.3l-1,10.1l-0.2,2.4v9.2v3.4l0.9,8.2l0.5,4.3l2.7,12.3
	l2.1,6.6l1.8,5.4l1.2,2.7l0.9,2.8l0.4,2.1l0.1,0.7l0.3,2.9v2.9l-0.4,2.9l-0.2,0.9l-0.5,1.9l-1,2.7l-1.2,2.6l-1.5,2.5l-1.8,2.3
	l-0.2,0.2l-1.9,1.9l-2.2,1.9l-2.4,1.6l-2.6,1.3l-2.6,1l-0.1,0.1l-2.8,0.8l-2.9,0.5l-2.9,0.2l-2.9-0.2l0,0l-2.9-0.5l-2.8-0.8
	l-2.7-1.1l-2.6-1.3l-2.4-1.6l-2.2-1.9l-2-2.1l-0.3-0.4l-1.4-1.9l-1.5-2.5l-1.2-2.6l-1-2.7l-0.2-0.6l-0.3-1.3l-0.2-0.9l-0.4-2.9v-2.9
	l0.3-2.9l0.4-2l0.2-0.8l0.1-0.3l0.8-2.5l1.2-2.7l1.8-5.4l2.1-6.6l2.7-12.3l0.5-4.3l0.9-8.2v-3.4v-9.2l-0.2-2.4l-1-10.1l-2.5-12.3
	l-0.2-0.8l-3.6-11.2l-1.3-2.7l-1-2.8l-0.1-0.5l-0.5-2.4l-0.3-2.9v-0.8v-2.2l0.3-2.9l0.6-2.9l0,0l0.9-2.8l0.4-0.8l0.8-1.9l1.5-2.5
	l1.8-2.4l2-2.1l2.2-1.9l1.2-0.8l1.2-0.8l2.6-1.4l2.7-1.1l2.8-0.8l2.9-0.5l0,0l2.9-0.2l2.9,0.2l2.9,0.5l2.8,0.8l2.7,1.1L326.4,2279.9
	 M403.1,2281.3l0.7,0.6l1.5,1.3l2,2.1l1.8,2.3l1.5,2.5l1.2,2.7l0.2,0.7l0.7,2.1l0.6,2.9l0.3,2.9v2.9l-0.1,0.8l-0.2,2.1l-0.6,2.9
	l-4.3,11.5l-1.8,6.7l-1.4,5.2l-1.9,12.2l-0.3,5.8l-0.1,1.7l-0.3,4.8l0.3,5.3l0.3,7l0.7,4.4l1.2,7.8l3.1,11.9l1.3,3.5l3,8l0.7,2.8
	l0.1,0.8l0.3,2.1l0.1,2.9l-0.2,2.9l-0.5,2.9l-0.2,0.8l-0.6,1.9l-1.1,2.7l-1.4,2.5l-1.6,2.4l-1.9,2.2l-2.1,2l-1.1,0.8l-1.3,0.9
	l-2.5,1.5l-2.6,1.2l-2.8,0.9l-2.5,0.5l-0.4,0.1l-2.9,0.3h-2.9l-2.9-0.3l-2.6-0.6l-0.3-0.1l-2.8-0.9l-2.6-1.2l-2.5-1.5l-2.3-1.7
	l-2.1-2l-0.1-0.1l-1.8-2.1l-1.6-2.4l-1.4-2.5l-1.1-2.7l-0.6-1.9l-0.2-0.8l-0.5-2.9l-0.2-2.9l0.1-2.9l0.3-2.1l0.1-0.8l0.7-2.8l3-8
	l1.3-3.5l3.1-11.9l1.8-12.2l0.6-12.3l-0.3-6.5l-0.3-5.8l-1.9-12.2l-1.4-5.2l-1.8-6.7l-4.3-11.5l-0.6-2.9l-0.2-2.1l-0.1-0.8v-2.9
	l0.3-2.9l0.6-2.9l0.7-2.1l0.2-0.7l1.2-2.7l1.5-2.5l1.8-2.3l2-2.1l1.5-1.3l0.7-0.6l2.4-1.6l2.6-1.4l2.7-1.1l1.7-0.5l1.1-0.3l2.9-0.5
	l2.9-0.2l2.9,0.2l1.8,0.3l1.1,0.2l2.8,0.8l2.7,1.1l2.6,1.4L403.1,2281.3L403.1,2281.3 M438.3,2494.5l-0.8-0.8l-1.8-1.8l-3.4-3.4
	l-5.2,5.2l-0.8,0.8l0,0l3.1,3.1l-12,12l-3.1-3.1l-6,6l3.1,3.1l1.3,1.3l1.6,1.6l-6,6l17.4,17.4l-5.2,5.2l15.2,15.2l0.9,0.9l5.2-5.2
	l5.2,5.2l0.5,0.5l0.5-0.5l5.5-5.5l5.4,5.4l0.1,0.1l0.5,0.5l0.5-0.5l5.5-5.5l-3.1-3.1l0.2-0.2l0.6-0.6l0.4-0.4l0.3-0.3l0.2-0.2
	l0.2-0.2l0.1-0.1l0,0l0.5,0.4l0.5,0.4l0.5,0.3l0.6,0.2l0.6,0.2l0.6,0.1h0.6h0.6l0.6-0.1l0.6-0.1l0.4-0.2l0.2-0.1l0.5-0.3l0.5-0.3
	l0.5-0.4l0.4-0.4l0.4-0.5l0.2-0.3l0.2-0.3l0.3-0.6l0.2-0.6l0.1-0.6l0.1-0.6v-0.6l-0.1-0.6l-0.1-0.6l-0.2-0.6l-0.2-0.6l-0.1-0.2
	l-0.2-0.3l-0.4-0.5l-0.4-0.5l2-2l3.1,3.1l4.6-4.6l1.1-1.1l0.4-0.4l-1.4-1.4l-4.6-4.6l4.6-4.6l1.4-1.4l-1.4-1.4l-9.4-9.4l-23.2-23.2
	l-5.2-5.2l-5.2,5.2L438.3,2494.5 M435.7,2481.5L435.7,2481.5l3.4-0.4h2l2.2,0.2l2.3,0.3h0.7l0.6-0.2l0.4-0.4l1,1l1.2,1.2l9.4,9.4
	l1,1l22.2,22.2l1,1l5.6,5.6l2.2,2.2l0.6,4l0.2,2.8l0.1,2.2l-0.2,4.7l-0.3,1.6l-0.4,2.9l-1.1,4.1l-1.5,3.8l-1.8,3.5l-2.2,3.2
	l-2.2,2.6l-0.3,0.3l-2.8,2.6l-0.1,0.1l-7,4.6l-4.9,2.6l-0.6,0.3l-3.2,1.3l-4.1,1.2l-0.3,0.1l-1.5,0.3l-2.4,0.5l-4.9,0.5h-7.9
	l-6.6-0.6l-7.9-0.7l-20.5-2.6l-3.6-0.5l-14.5-1.3l-7.1-0.6h-18.2l-16.6,1.7l-20.6,3.7l-26.2,5.6l-4.2,0.8l-17.6,3.2l-15.2,1.5h-13.6
	h-0.5l-16.1-1.6l-17.8-3.4l-12-3.1l-7.6-2l-6-1.8l-9.2-2.8l-0.4-0.1l-5.5-1.7l-0.2-0.1l-3.4-2l-3.1-2.3l-0.6-0.5l-2.3-2l-2.5-2.9
	l-2.2-3.2l-1.9-3.5v-0.1l-1.3-3.1l-0.3-0.6l-1.2-4.1l-0.8-4.4l-0.3-4.7l0.2-5l0.8-5.2l1.7-1.7l6.2-6.2l33.6-33.6l2.2-2.2l4.4-1.6
	l1.1-0.4l11.5-4.3l12.8-4.2l5.6-1.9l15.4-3.9l0.6-0.2l12.3-2l10.1-0.7l8.8,0.3l8,1.1l6.6,1.5l1.8,0.4l13.2,4.4l2.1,0.9l19.9,8.3
	l14.3,5.7l11,3.5l8.7,2l7.5,1l8.2,0.2l6.3-0.5l4.3-0.3l15.4-2.7l18.2-4.4l2.3-0.5L435.7,2481.5 M1391.2,1957.8l-16.3-8.5l-15.2-7.9
	l-0.8-0.4h-7.3h-1.2v0.4v8.2l-17,1.7h-5h-7.8v9.1l-5.8,3.5v0.8v9.3l4.9,4.2v9.7v7.5h8.7h0.7v12.9h-0.7h-7.2l-1.9,0.1l-1.3-0.1h-0.6
	l-0.7-0.1l-1.2-0.2l-1.8-0.5l-1.8-0.7l-1.7-0.8l-1.6-1l-1.5-1.2l-1.4-1.3l-0.8-0.9l-0.4-0.5l-1.1-1.5l-0.1-0.1l-0.9-1.5l-3.7-7.5
	l-5.5,2.5l-2.3,1l2.3,5l0.2,0.5l5.2,11.6l2.6,5.7h3.6h23.2h12.1v3.3v6.6h24l3.9-6.6h6.5h22v-9.1v-23.2v-23.2v-6.9L1391.2,1957.8
	 M1382.5,2085.9l5,0.6l10.6,1.4l23.2,3h0.3l0.3,0.1l0.6,0.2l0.5,0.3l0.4,0.4l0.3,0.5l0.2,0.5l0.1,0.6v0.6l-0.1,0.6l-0.3,0.5
	l-1.8,2.9l-0.5,0.9l-6.6,10.7l-8.8,14.3v8.9v23.2v2.2h-14.2v8.5h14.2v12.5v21.9l0.8,1.3l14.2,23.2l0.3,0.5l2.3,3.8l0.1,0.3l0.2,0.6
	l0.1,0.6v0.6l-0.2,0.6l-0.3,0.5l-0.4,0.5l-0.5,0.4l-0.5,0.3l-0.6,0.1h-0.3l-23.2,3h-0.3l-15.3,2l-1.1-1.1l-0.9-0.7l-0.2-0.1
	l-0.7-0.4l-0.9-0.5l-0.9-0.3l-0.9-0.2h-0.2l-0.9-0.1h-0.9h-0.1l-1,0.1l-1.1,0.2l-1.2,0.3l-1.7,0.6l-1.2,0.6l-1.1,0.5l-4.9,3
	l-5.7,3.6l-0.9,0.5l-0.9,0.4l-1.4,0.5l-1.2,0.3l-0.8,0.1l-0.5,0.1l-1.2,0.1h-1.2l-1.2-0.2l-1.3-0.3l-1.4-0.5l-1.9-0.8l-2.7-1.5h-0.1
	l-8.8-5.7l-2.5-1.6l-0.2-0.1l-2.4-1.6l-4-3.1l-2.6-2.4l-1.8-2l-0.6-0.8l-0.3-0.3l-0.3-0.4l-0.8-1.3l-0.5-1.1l-0.4-0.9l-0.2-0.8h2.2
	h9.1v-6.8v-1.7h-14.2l-2.9-0.8l-2.7-1.1l-1-0.5l-1.1-0.6l-1.6-1l-1.3-1l-1.1-1l-1-1.1l-0.9-1.3l-0.8-1.5l0,0l-0.7-1.6l-0.6-2l-0.7-3
	l-0.5-4.1v-0.9l-0.1-3.1l0.2-2.1l0.2-1.2l0.2-0.8l0.2-0.5l0.3-0.6l0.3-0.4h9.1h23.2h31.7v-26.1v-11.6v-1.5h-8.5h-23.2h-32.3
	l-0.3-0.4l-0.3-0.6l-0.2-0.5l-0.2-0.8l-0.2-1.2l-0.2-2.1l0.1-4l0.1-0.5l0.4-3.7l0.7-3l0.6-2l0.7-1.7l0.7-1.3l0.1-0.1l0.9-1.3l1-1.1
	l1.1-1l1.3-1l1.6-1l1.1-0.6l1-0.5l2.7-1.1l2.9-0.8h14.2v-3.1v-5.4h-11.3l0.2-0.8l0.4-0.9l0.5-1.1l0.8-1.3l1.2-1.6l0.5-0.5l1.3-1.5
	l2.6-2.4l4-3.1l2.4-1.6l0.2-0.1l4.6-3l6.7-4.4l2.8-1.6l1.9-0.8l1.4-0.5l1.3-0.3l1.2-0.2h1.2l1.2,0.1l0.5,0.1l0.8,0.1l1.2,0.3
	l1.4,0.5l1.8,0.9l5.7,3.6l3.6,2.1l1.4,0.8l2.3,1.1l1.7,0.6l1.2,0.3l1.1,0.2l1,0.1h0.1h0.9l0.9-0.1h0.2l0.9-0.2l0.9-0.3l0.9-0.5
	l0.9-0.6l0.9-0.7l0.5-0.5L1382.5,2085.9 M1194.4,1988.6l-7.5,4.7l-1.3,0.8v8.5l8.8,5.6l-4.6,5.1l-5.7-4.6l-4.7-3.8l-1-0.8l-1.1,0.8
	l-0.6,0.5l1.5,2l2.5,3.3l1,1.3l-2.6,4.5l-3,5.2l-0.6,1.8l-0.8,1.7l-1,1.7l-0.9,1.2l-0.3,0.4l-0.1,0.1l-1.2,1.3l-1.5,1.3l-1.6,1.1
	l-1.5,0.8l-0.2,0.1l-1.8,0.7l-0.2,0.1l-1.7,0.5l-1.9,0.3h-0.1l-1.8,0.1l-1.9-0.1l-1.9-0.3l-1.9-0.5h-0.1l-1.7-0.7l-1.7-0.9l-0.6-0.4
	l-1-0.7l-1.5-1.2l-1.3-1.4l-0.5-0.6l-0.7-0.9l-1-1.6l-0.1-0.1l-0.8-1.7l-0.5-1.5l-0.1-0.3l-0.4-1.9l-0.2-1.9v-1.7v-0.2l0.2-1.9
	l1.9-3.7l3-5.8l1.2-2.3h2h11.6h5.2v-8.5h-5.2h-11.6h-2l-0.4-0.8l-3-5.8l-0.4-0.9l-2.2-4.2l-0.1-0.7l-0.1-1.2v-1.9l0.2-1.9l0.2-0.8
	l0.3-1.1l0.6-1.8l0.8-1.7l0.2-0.3l0.5-0.8l0.3-0.5l1.2-1.5l1.3-1.4l1.5-1.2l1-0.7l0.6-0.4l0.2-0.1l1.5-0.8l1.8-0.7l1.9-0.5l1.9-0.3
	l1.9-0.1l1.8,0.1h0.1l1.9,0.3l1.8,0.5l1.8,0.7l1.2,0.7l0.5,0.3l1.6,1.1l1.5,1.3l1.2,1.3l0.1,0.1l1.2,1.5l0.2,0.3l0.8,1.4l0.8,1.7
	l0.6,1.8l1.1,1.8l2.8,4.8l1.8,3l-2.1,2.8l-1.4,1.9l-1.5,2l1.5,1.1l0.2,0.1l5.6-4.6l5.7-4.6L1194.4,1988.6 M1263.3,2038.3l2.1,1.5
	l0.4,0.3l2.4,2l2.2,2.2l1.9,2.4l1.7,2.6l1,2l0.4,0.8l1.1,2.9v7.9v11.6v11.6v8.3h-13.1v3.3v5.2h13.1v6.4v11.6v11.6v9.8l-0.7,1.8
	l-0.4,1.1l-1.4,2.8l-1.7,2.6l-1.9,2.4l-2.2,2.2l-0.5,0.4l-1.8,1.6l-2.6,1.8l-2.7,1.5l-2.9,1.2l-3,0.9l-1,0.2l-2.1,0.4l-4.2,0.4
	l-3.8,0.3l-1.5-0.1l-2.4-0.1l-3.8-0.6l-3.7-1l-1.7-0.7l-1.9-0.7l-3.4-1.8l-3.2-2.1l-1.3-1.1l-1.6-1.3l-2.7-2.8l-2.4-3.1l-2-3.3
	l-0.5-1.1l-1.1-2.4l-1.3-3.6l-0.8-3.8l-0.2-1.8l-0.2-2v-3.9l0.4-3.8l0.4-1.9v-0.1l0.4-1.8l1.2-3.7l1.6-3.5l0.5-1.1l0.4-1.1l0.1-0.4
	l0.2-0.8l0.2-1.2l0.2-2.2v-2.2h0.6h5.1v-5.2v-3.3h-3.1h-0.8h-0.7h-0.5h-0.4h-0.2v-2.2l-0.2-2.2l-0.2-1.2l-0.3-1.2l-0.4-1.1l-0.2-0.4
	l-0.4-0.8l-1.6-3.5l-1.2-3.7l-0.8-3.7v-0.1l-0.4-3.8v-3.9l0.4-3.8l0,0l0.8-3.7l1.3-3.6l1.6-3.5l0.4-0.7l1.6-2.6l2.4-3.1l2.7-2.8
	l3-2.5l1.1-0.7l2.1-1.4l3.4-1.8l1.9-0.7l1.7-0.7l3.7-1l3.8-0.6l2.4-0.1l1.5-0.1l3.8,0.3l4.2,0.4l2.1,0.4l1,0.2l3,0.9l2.9,1.2
	L1263.3,2038.3 M1191.3,2082.7l3.2,3.5l1.4,1.6l-8.8,5.6v8.5l8.8,5.6l-1.8,2l-2.8,3.1l-3.8-3.1l-3.4-2.7l-4.1-3.3l-1.7,1.2l3.6,4.8
	l1.4,1.8l-5.6,9.7v0.1l-0.6,1.8l-0.8,1.7l-1,1.7l-1.2,1.5l-1.3,1.4l-0.3,0.3l-1.2,1l-1.6,1.1l-1.7,0.9l-0.6,0.3l-1.2,0.5l-1.8,0.5
	l-1.9,0.3l-1.9,0.1l-1.9-0.1l-1.9-0.3l-1.9-0.5l-1.4-0.6l-0.4-0.1l-1.7-0.9l-1.6-1.1l-0.5-0.5l-0.9-0.8l-1.3-1.4l-1.2-1.5l-1-1.6
	l-0.8-1.7l-0.6-1.8v-0.2l-0.4-1.7l-0.2-1.9v-1.9l0.2-1.9l2.1-4.2l3.9-7.6h4.3h7.7h6.7v-4.1v-4.4h-6.7h-12l-3.7-7.2l-2.3-4.6
	l-0.2-1.9v-1.9l0.2-1.9l0.3-1.3l0.1-0.6l0.6-1.8l0.8-1.7l1-1.6l1.2-1.5l1.3-1.4l0.9-0.8l0.5-0.5l1.6-1.1l1.2-0.6l0.5-0.3l1.8-0.7
	l1.9-0.5l1.9-0.3l1.9-0.1h0.3l1.6,0.1l1.9,0.3l1.8,0.5l1.8,0.7l0.3,0.1l1.4,0.8l1.6,1.1l1.2,1l0.3,0.3l1.3,1.4l1.2,1.5l1,1.7
	l0.8,1.7l0.6,1.8l0.2,0.3l5.5,9.4l-1.7,2.2l-3.3,4.4l1.7,1.2l4.1-3.3l2.9-2.4L1191.3,2082.7 M1148,2049.2h-10.3h-0.4v2.1v1.5h-8.5
	v10.1v17h-7.5v6.2v12.2v8.5v18.5h7.5v7.2v19.9h8.5v3.3v0.3h0.4h8.3l-0.1,4.3l-3.9,0.5h-3.9h-0.4l-3.5-0.3l-3.9-0.8l-6.6-1.9
	l-4.3-1.8l-0.7-0.3l-1.4-0.6l-2.9-1.6l-3.2-1.7l-5.7-3.9l-5.2-4.5l-4.7-5l-4.1-5.5v-0.3v-25.7h-0.4h-8.1v-8.5h8.1h0.4v-12.2v-13.8
	l4.1-5.5l3.6-3.9l1.1-1.1l5.2-4.5l5.7-3.9l3.2-1.7l0.5-0.3l2.3-1.3l2.1-0.9l4.3-1.8l6.6-1.9l3.5-0.7l3.6-0.4h0.3h3.3l3.6,0.3
	l3.5,0.7V2049.2 M1376.6,2332.6h8.5v-8.1v-3.2h-3.6h-11.6h-11.5l1.2,3.2l8.4,23.2l0.2,0.5v7h1.8h15.2v-7.5v-3.8h-8.5L1376.6,2332.6
	 M1393.5,2351.7l-0.4,1.1l-0.3,0.8l-0.9,1.9l-1.1,1.8l-1.4,1.7l-0.3,0.3l-1.4,1.4l-2,1.7l-2.4,1.7l-2.9,1.6l-1.5,0.7l-4,1.6
	l-5.1,1.5l-1.2,0.4l-5.4,1l-4.4,0.8l-17.5,1.4l-8,0.2l-8-0.2l-17.5-1.4l-4.4-0.8l-3.2-0.6l-2.2-0.4l-6.3-1.8l-4-1.6l-1.5-0.7
	l-2.9-1.6l-2.4-1.7l-2-1.7l-1.4-1.4l-0.3-0.3l-0.3-0.3l-1.1-1.4l-1.1-1.8l-0.9-1.9l-0.7-1.9l-0.6-2.2l-0.3-1.8l-0.1-0.9l-0.3-4.7
	l-0.1-8.8l0.3-4l0.5-2.7l0.5-1.9l0.1-0.3l0.5-1.3l0.7-1.5l0.9-1.4l1-1.4l0.8-0.8l0.4-0.4l1.5-1.3l2.2-1.6l0.4-0.2l2.4-1.3l3.9-1.7
	l5.6-1.9l6.9-1.6l1.3-0.3l12.7-1.9l9.3-0.5l9.9-0.5l13.3,0.7l5.8,0.3l12.7,1.9l4.7,1.1l3.4,0.8l5.6,1.9l3.1,1.4l0.8,0.4l2.4,1.3
	l0.4,0.2l2.2,1.6l1.5,1.3l1.2,1.2l1,1.4l0.9,1.4l0.7,1.5l0.1,0.1l0.5,1.2l0.1,0.3l0.5,1.9l0.5,2.7l0.3,4l-0.1,8.8l-0.3,4.7l-0.1,0.9
	l-0.3,1.8L1393.5,2351.7 M1300.1,2343.9l0.1-0.4l2.7-7.4l4.2-11.6l1.2-3.2h-8h-18.7v3.2v8.1h8.5v3.5v7.8h-8.5v3.8v7.5h7.1h7.4h2.5
	v-7l0.2-0.5L1300.1,2343.9 M1231.4,2223.8l-0.4,1.7v0.1l-0.4,1l-0.3,0.8l-0.8,1.7l-1,1.6l-0.5,0.6l-0.7,0.9l-1.3,1.4l-1.5,1.2
	l-1.6,1l-1.7,0.9l-1.2,0.5l-0.5,0.2l-1.8,0.5l-1.9,0.3h-8.5h-23.2h-0.9l-8.2,3.9l-3.1-3.9l-0.8-1l-8.5-10.7l-0.7-0.9l-1.1-1.4
	l-12.6-15.8l3.6-4.8h9h23.2h23.2h11.1l0.5,0.2l1.3,0.4l1.7,0.8l1.6,0.9l1.5,1.1l1.4,1.3l1.3,1.4l1.1,1.5l0.9,1.6l0.5,1.1l0.2,0.6
	l0,0l0.6,1.8l0.4,1.9l0.2,1.9v1.9L1231.4,2223.8 M1235.9,2271.1v0.9v1l-0.2,1.9l-0.4,1.8l-0.6,1.8l-0.8,1.7l-1,1.6l-1.2,1.5
	l-0.3,0.4l-0.6,0.7l-0.3,0.3l-1.5,1.2l-1.6,1l-1.7,0.9l-1.8,0.7l-1.8,0.5l-1.9,0.3h-1.1h-11.6h-19.8l-3.4,1.6l-4.8,2.3l-7.5-9.5
	l-6.7-8.5l-1.1-1.4l-1.4-1.7l-0.1-0.1l-1.6-2l-8.3-10.5l3.6-4.8h4.7h23.2h23.2h15.4l1.8,0.6l1.7,0.8l1.6,0.9l1.5,1.1l1.2,1l0.2,0.2
	l1,1.2l0.2,0.3l1.1,1.5l0.9,1.6l0.7,1.7l0.6,1.8l0.4,1.9L1235.9,2271.1 M940,1986.4v6.9v3.6h0.3h8.2l-1.1,0.1l-1.2,0.4l-1.1,0.7
	l-1.1,0.9l-1.1,1.2l-1,1.4l-1,1.6l-0.6,1.3l-0.1,0.3l-0.1,0.2l-0.8,2l-0.7,2.2l-0.6,2.4l-0.5,2.5l-0.3,2.2l-0.1,0.4l-0.3,2.7
	l-0.2,2.7l-0.1,2.8l0.1,2.8v0.3l0.2,2.4l0.3,2.7l0.4,2.6l0.5,2.5l0.4,1.4l0.2,0.9l0.7,2.2l0.8,2l0.2,0.5l0.6,1.3l1,1.6l1,1.4
	l1.1,1.2l0.4,0.3l0.7,0.6l1.1,0.7l1.2,0.4l1.1,0.1l1.1,0.2l1.1,0.7l0.2,0.2l0.9,1l0.1,0.2l0.9,1.4l1,2l1,2.4l0.9,2.8l0.8,3.1
	l0.7,3.4l0.7,3.7l0.6,4l0.5,4.2l0.3,3.7l0.1,0.7l0.3,4.5l0.2,4.6v1.8v2.8l-0.1,4.7l-0.1,4.1v0.5l-0.3,4.5l-0.4,4.4l-0.5,4.2l-0.6,4
	l-0.7,3.7l-0.4,1.9l-0.3,1.5l-0.8,3.1l-0.9,2.8l-1,2.4l-1,2l-0.9,1.4l-0.1,0.2l-1.1,1.1l-1.1,0.7l-1.1,0.2l0,0h-0.1l-0.9,0.1
	l-1.2,0.4l-1.1,0.7l-1.1,0.9l-1.1,1.2l-1,1.4l-1,1.6l-0.7,1.4v0.1l-0.2,0.4l-0.8,2l-0.7,2.2l-0.6,2.4l-0.5,2.5l-0.3,2l-0.1,0.6
	l-0.3,2.7l-0.2,2.7l-0.1,2.8l0.1,2.8v0.1l0.2,2.6l0.3,2.7l0.4,2.6l0.5,2.5l0.3,1.2l0.3,1.1l0.7,2.2l0.8,2l0.9,1.9l1,1.6l1,1.4
	l1.1,1.2l0.1,0.1l1,0.8l1.1,0.7l1.2,0.4l1,0.1l0,0h-0.7h-0.6h-0.6H940v9.6v1h-11.3h-23.2h-22.1v-10.6h-6.5h-0.6h-0.6H875l1.1-0.1
	l1.2-0.4l1.1-0.7l1-0.8l0.1-0.1l1.1-1.2l1-1.4l0.7-1.3l0.2-0.4l0.9-1.9l0.8-2l0.7-2.2l0.3-1.1l0.3-1.2l0.5-2.5l0.4-2.6l0.3-2.7
	l0.2-2.6v-0.1l0.1-2.8l-0.1-2.8l-0.2-2.7l-0.3-2.7l-0.1-0.6l-0.3-2l-0.5-2.5l-0.3-1.3l-0.3-1.1l-0.7-2.2l-0.8-2l-0.2-0.5l-0.7-1.4
	l-0.2-0.4l-0.7-1.3l-1-1.4l-0.8-0.9l-0.3-0.3l-1.1-0.9l-1.1-0.7l-1.2-0.4l-1.2-0.1l0,0l-1.5-0.2l-1.6-0.7l-1-0.7l-0.6-0.4l-1.6-1.6
	l-0.2-0.2l-1.3-1.8l-1.4-2.4l-1.3-2.8l-1.2-3.1l-0.5-1.5l-0.6-1.9l-1-3.7l-0.9-4l-0.3-2l-0.4-2.2l-0.2-1.7l-0.3-2.7l-0.4-4.5v-0.5
	l-0.2-4.1l-0.1-4.7l0.1-4.7l0.2-4.6l0.4-4.5l0.1-0.7l0.3-2.1l0.2-1.7l0.7-4.2l0.8-3.7l0.1-0.3l1-3.7l1.1-3.4l1.2-3.1l0.5-1l0.9-1.8
	l1.4-2.4l1.5-2l1.6-1.6l0.6-0.4h0.1l0.9-0.7l1.6-0.7l1.5-0.2v-0.1l1-0.1l1.2-0.4l1.1-0.7l0.6-0.5l0.5-0.4l1.1-1.2l1-1.4l0.9-1.5
	l0.1-0.1l0.5-1.2l0.3-0.7l0.8-2l0.7-2.2l0.2-0.8l0.4-1.5l0.5-2.5l0.4-2.6l0.3-2.7l0.1-2.3v-0.4l0.1-2.8l-0.1-2.8l-0.2-2.7l-0.3-2.7
	v-0.3l-0.4-2.3l-0.5-2.5l-0.6-2.4l-0.7-2.2l-0.8-2l-0.1-0.2l-0.8-1.7l-0.1-0.1l-0.9-1.5l-1-1.4l-1.1-1.2l-1.1-0.9l-1.1-0.7l-1.2-0.4
	h-0.3h6.7h1.1v-3.6v-6.9h22.1H940 M1062.8,2083.6l1.6,2.6l0.3,0.6l1.5,3.3l1.2,3.5l0.6,2.5l0.2,1.1l0.4,3.7v3.7l-0.4,3.7l-0.2,1.1
	v0.2l-0.5,2.4l-1.2,3.5l-1.5,3.3l-1.4,2.4l-0.5,0.8l-2.2,2.9l-2.5,2.7l-2.8,2.4l-3,2.1l-1.5,0.8l-1.7,0.9l-3.4,1.4l-0.7,0.2
	l-2.8,0.8l-3.6,0.6l-3.7,0.2l-3.7-0.2l-3.6-0.6l-3.5-1l-3.4-1.4l-1.7-0.9l-1.5-0.8l-3-2.1l-2.8-2.4l-2.5-2.7l-2.2-2.9l-0.5-0.8
	l-1.4-2.4l-1.5-3.3l-1.2-3.5l-0.5-2.4l-0.3-1.2l-0.4-3.7v-3.7l0.3-3l0.1-0.6l0.8-3.6l1.2-3.5l1.5-3.3l0.3-0.6l1.6-2.6l2.2-2.9
	l2.5-2.7l2.8-2.4l3-2.1l3.3-1.7l1.2-0.5l2.2-0.9l3.5-1l3.6-0.6l3.7-0.2l3.7,0.2l3.6,0.6l2.8,0.8l0.7,0.2l3.4,1.4l3.3,1.7l3,2.1
	l2.8,2.4l2.5,2.7L1062.8,2083.6 M815.5,1986.4v6.9v3.6h8.5l-1.1,0.1l-1.2,0.4l-1.1,0.7l-1.1,0.9l-1.1,1.2l-1,1.4l-1,1.6l-0.8,1.6
	l-0.1,0.2l-0.8,2l-0.7,2.2l-0.6,2.4l-0.5,2.5l-0.3,2.2l-0.1,0.4v0.2l-0.3,2.5l-0.2,2.7l-0.1,2.8l0.1,2.8v0.3l0.2,2.4l0.3,2.5v0.2
	l0.4,2.6l0.5,2.5l0.4,1.4l0.2,0.9l0.7,2.2l0.8,2l0.9,1.9l1,1.6l1,1.4l1.1,1.2l0.4,0.3l0.7,0.6l1.1,0.7l1.2,0.4l1.1,0.1h0.1l1,0.2
	l1.1,0.7l1.1,1.1l1,1.6l1,2l1,2.4l0.6,1.8l0.3,1l0.8,3.1l0.7,3.4l0.7,3.7v0.3l0.5,3.7l0.5,4.2l0.3,3.7l0.1,0.7l0.3,4.5l0.2,4.6v1.8
	v2.8v3v1.7l-0.1,4.1v0.5l-0.3,4.5l-0.4,4.4l-0.3,2.2l-0.2,2l-0.6,4l-0.7,3.7l-0.4,1.9l-0.3,1.5l-0.8,3.1l-0.9,2.8l-1,2.4l-0.9,1.8
	l-0.1,0.2l-1,1.6l-1.1,1.1l-1.1,0.7l-1,0.2H824l0,0l-1,0.1l-1.2,0.4l-1.1,0.7l-1.1,0.9l-1.1,1.2l-1,1.4l-1,1.6l-0.7,1.4l-0.2,0.5
	l-0.8,2l-0.7,2.2l-0.6,2.4l-0.5,2.5l-0.4,2.6l-0.1,0.9l-0.2,1.8l-0.2,2.7l-0.1,2.8l0.1,2.8v0.1l0.2,2.6l0.2,1.8l0.1,0.9l0.4,2.6
	l0.5,2.5l0.3,1.2l0.3,1.1l0.7,2.2l0.8,2l0.9,1.9l1,1.6l1,1.4l1.1,1.2l0.1,0.1l1,0.8l1.1,0.7l1.2,0.4l1,0.1l0,0h-0.7h-0.6h-0.6h-6.6
	v9.6v1h-3h-46.4h-7.3v-10.6h-6.5h-0.6h-0.6h-0.7l1.1-0.1l1.2-0.4l1.1-0.7l1-0.8l0.1-0.1l1.1-1.2l1-1.4l0.9-1.6l0.9-1.9l0.8-2
	l0.7-2.2l0.3-1.1l0.3-1.2l0.5-2.5l0.4-2.6l0.3-2.7l0.2-2.6v-0.1l0.1-2.8l-0.1-2.8l-0.2-2.7l-0.3-2.7l-0.1-0.6l-0.3-2l-0.5-2.5
	l-0.3-1.3l-0.3-1.1l-0.7-2.2l-0.8-2l-0.2-0.5l-0.7-1.4l-0.9-1.6l-1-1.4l-1.1-1.2l-0.4-0.4l-0.7-0.6l-1.1-0.7l-1.2-0.4l-1.2-0.1l0,0
	l-1.5-0.2l-1.6-0.7l-1.6-1.1l-1.6-1.6l-0.2-0.2l-0.9-1.2l-0.4-0.6l-1.4-2.4l-1.3-2.8l-1.2-3.1l-0.5-1.5l-0.6-1.9l-1-3.7l-0.9-4
	l-0.7-4.2l-0.6-4.4l-0.4-4.5v-0.5l-0.2-4.1l-0.1-4.7v-2.8v-1.8l0.2-4.6l0.4-4.5l0.1-0.7l0.5-3.7l0.7-4.2l0.9-4l1-3.7l1.1-3.4
	l1.2-3.1l0.5-1l0.9-1.8l1.4-2.4l0.4-0.6l0,0l1.1-1.4l1.6-1.6l0.7-0.5l0.9-0.7l1.6-0.7l1.5-0.2v-0.1l1-0.1l1.2-0.4l1.1-0.7l0.6-0.5
	l0.2-0.2l0.3-0.3l1.1-1.2l1-1.4l0.9-1.6l0.5-1.2l0.3-0.7l0.8-2l0.7-2.2l0.2-0.8l0.4-1.5l0.5-2.5l0.4-2.6l0.3-2.7l0.1-2.3v-0.4
	l0.1-2.8l-0.1-2.8l-0.2-2.7l-0.3-2.7v-0.3l-0.4-2.3l-0.5-2.5l-0.6-2.4l-0.7-2.2l-0.8-2l-0.1-0.2l-0.8-1.7l-0.9-1.6l-1-1.4l-1.1-1.2
	l-1.1-0.9l-1.1-0.7l-1.2-0.4h-0.3h7.8v-3.6v-6.9h7.3h46.4h3.2 M829.6,2314.1l-0.2,4.3v0.5l-0.7,4.5l-0.9,3.3l-0.2,0.8l-1,2.5
	l-0.5,1.3l-1.8,3.5v0.1l-2.1,3.2l-2.5,2.9l-0.6,0.6l-2.1,2l-4.2,2.8l-2.8,1.9l-4.9,2.6l-0.6,0.3l-3.2,1.3l-4.1,1.2l-4.2,0.8
	l-3.3,0.3l-1.5,0.1h-7.9l-5.2-0.5l-8.7-0.8l-0.6-0.1l-20.5-2.6l-3.6-0.5l-21.6-2h-0.2h-18.1l-16.6,1.7l-20.6,3.7l-26.2,5.6
	l-11.5,2.1l-10.4,1.9l-12.6,1.2h-0.3l-2.3,0.2h-14.1l-2.1-0.2l-4.7-0.5l-9.3-0.9l-13.9-2.6l-4-0.8l-19.3-5l-0.3-0.1l-15.2-4.6
	l-5.9-1.8l-0.2-0.1l-1.5-0.9l-1.9-1.1l-3.1-2.3l-2.8-2.6l0,0l-2.5-2.8l-1.2-1.6l-1.1-1.5l-1.9-3.5l-0.9-2.2l-0.7-1.6l-1.2-4.1
	l-0.8-4.4l-0.1-1.6l-0.1-2l-0.1-1.1l0.2-5l0.8-5.2l33.2-33.2l7.7-7.7l0.6-0.6l2.2-2.2l5.6-2.1l11.5-4.3l18.4-6.1l8.1-2.1l7.9-2
	l12.3-2l10.1-0.7l8.8,0.3l7.3,1l0.7,0.1l8.4,1.9l7.1,2.4l6.1,2l22,9.2l14.3,5.7l11,3.5l8.7,2l7.5,1l7.2,0.2h1l10.5-0.8l15.4-2.7
	l19.5-4.7l0.9-0.2l6.3-1.3l3.4-0.4h1h1.1l2.2,0.2l2.3,0.3h0.7l0.6-0.2l0.4-0.4l2.2,2.2l2.2,2.2l6.1,6.1l17.1,17.1l13.9,13.9l2.2,2.2
	l0.6,4L829.6,2314.1 M767,2277.9l-0.9,0.9L755,2290l-3.1-3.1l-6,6l2.3,2.3l3.7,3.7l-6,6l13.5,13.5l3.9,3.9l-5.2,5.2l8,8l6.2,6.2l2,2
	l2-2l3.1-3.1l3.1,3.1l2.6,2.6l2.6-2.6l1.6-1.6l1.8-1.8l2.9,2.9l0.6,0.6l2.6,2.6l2.6-2.6l1.2-1.2l2.3-2.3l-2.3-2.3l-0.8-0.8l0.8-0.8
	l0.3-0.3l0.3-0.3l0.2-0.2l0.2-0.2l0.1-0.1l0,0l0.5,0.4l0.5,0.4l0.5,0.3l0.6,0.2l0.6,0.2l0.6,0.1h0.6h0.6h0.2l0.4-0.1l0.6-0.1
	l0.6-0.2l0.5-0.3l0.5-0.3l0.5-0.4l0.4-0.4l0.4-0.5l0.3-0.5l0.3-0.5l0.2-0.6l0.1-0.6v-0.1l0.1-0.5v-0.6l-0.1-0.6l-0.1-0.6l-0.2-0.6
	l-0.2-0.6l-0.3-0.5l-0.4-0.5l-0.4-0.5l0.3-0.3l1.7-1.7l0.4,0.4l2.7,2.7l6-6l-1.7-1.7l-4.3-4.3l6-6l-8.7-8.7l-27.5-27.5l-3.1-3.1
	l-3.1,3.1l-2.9,2.9l-2.9-2.9l-3.1-3.1l-3.1,3.1l-0.7,0.7l-2.2,2.2l0,0l2.2,2.2L767,2277.9 M1217,2382.8l0.9,0.8l1.2,1.1l1.9,2.2
	l1.6,2.4l1.4,2.5l1.1,2.7l0.2,0.7l0.3,0.9l0.4,1.2l0.5,2.9l0.2,2.9l-0.1,2.9l-0.4,2.9l-0.5,2.1l-0.2,0.7l-2.5,6.8l-1.8,4.8
	l-3.1,11.9l-1.8,12.2l-0.6,12.3l0.3,5.2l0.4,7.1l1.9,12.2l3.1,11.9l4.3,11.5l0.6,2.9l0.1,0.8l0.2,2.1v2.9l-0.3,2.9l-0.6,2.9
	l-0.1,0.2l-0.2,0.6l-0.7,2l-1.2,2.7l-1.5,2.5l-1.8,2.3l-2,2.1l0,0l-2.2,1.9l-2.4,1.6l-2.6,1.4l-2.7,1.1l-2.8,0.8l-2.9,0.5h-0.2
	l-2.8,0.2l-2.9-0.2l-2.9-0.5l-2.8-0.8l-2.7-1.1l-2.6-1.4l-2.4-1.6l-2.2-1.9l0,0l-1.8-1.9l-0.2-0.2l-1.8-2.3l-1.5-2.5l-1.2-2.7
	l-0.7-2l-0.3-0.8l-0.6-2.9l-0.3-2.9v-2.9l0.2-2.1l0.1-0.8l0.6-2.9l4.3-11.5l2.1-8l1-3.9l1.9-12.2l0.4-7.1l0.3-5.2l-0.6-12.3
	l-1.8-12.2l-3.1-11.9l-1.8-4.8l-2.5-6.8l-0.7-2.8l-0.4-2.9l-0.1-2.9l0.2-2.9l0.5-2.9l0.6-2.1l0.2-0.7l1.1-2.7l1.4-2.5l1.6-2.4
	l0.9-1.1l1-1.1l1.2-1.1l0.9-0.8l2.3-1.7l2.5-1.5l2.6-1.2l2.8-0.9l2.8-0.6l2.9-0.3h2.9l1.3,0.1l1.6,0.2l2.8,0.6l2.8,0.9l2.6,1.2
	l2.5,1.5L1217,2382.8 M1134.4,2379.5l2.4,1.6l2.2,1.9l0.6,0.6l1.4,1.5l1.8,2.3l1.5,2.5l1.2,2.6l1,2.7l0,0l0.7,2.8l0.4,2.9v2.9
	l-0.3,2.9v0.1l-0.1,0.6l-0.4,2.1l-0.9,2.8l-1.2,2.7l-1.1,3.5l-2.8,8.5l-2.7,12.3l-0.3,2.4l-1.1,10.1v1.5v11.1l0.1,0.5l1.2,12
	l2.3,11.2l0.2,1.1l0.2,0.5l3.6,11.5l1.3,2.7l1,2.8l0.7,2.9l0.1,1.2l0.1,0.6l0.1,1.1v2.9l-0.3,2.9l-0.6,2.9l-0.6,1.7l-0.4,1.1
	l-1.2,2.7l-1.5,2.5l-1.8,2.4l-2,2.1l-1,0.8l-1.3,1.1l-2.4,1.7l-2.6,1.4l-2.7,1.1l-2.8,0.8l-1.6,0.3l-1.3,0.2l-2.9,0.2l-2.9-0.2
	l-2.9-0.5l-1.5-0.4l-1.3-0.4l-2.7-1.1l-2.6-1.4l-2.4-1.7l-1.3-1.1l-1-0.8l-0.3-0.3l-1.7-1.8l-1.8-2.4l-1.5-2.5l-1.2-2.7l-0.4-1.1
	l-0.6-1.7l-0.6-2.9l-0.3-2.9v-2.9l0.1-1.1l0.1-0.6l0.1-1.2l0.7-2.9l1-2.8l1.3-2.7l3.6-11.5l0.2-0.5l1-4.8l1.5-7.5l1.2-12l0.1-0.5
	v-11.1v-1.5l-1.1-10.1l-0.3-2.4l-1.4-6.4l-1.3-5.9l-2.8-8.5l-1.1-3.5l-1.2-2.7l-0.9-2.8l-0.6-2.8l-0.3-2.9v-2.9l0.4-2.9l0.7-2.8l0,0
	l1-2.7l1.2-2.6l1.5-2.5l1.8-2.3l1.5-1.5l0.5-0.6l2.2-1.9l2.4-1.6l2.6-1.3l2.7-1.1l1.2-0.3l1.6-0.4l2.9-0.5l2.9-0.2l2.9,0.2l1.3,0.2
	l1.5,0.2l2.8,0.8l2.7,1.1L1134.4,2379.5 M688,2391l0.8,0.7l1.4,1.1l2,2l1.8,2.2l1.6,2.4l1.3,2.6l0.6,1.5l0.4,1.2l0.7,2.8l0.4,2.8
	l0.1,2.9v2l-0.2,11.6l-1,46.4l-0.2,11.6v1l-8.3,10.5l-7.4,9.3l-7.8,10.8l-1.6,2.8l-1.2,2l-1.3,2.8l-0.8,2.1l-0.4,1.7l-0.2,1.4
	l-0.1,1.1v0.5v0.5l0.1,0.9l0.2,1l0.3,1l0.4,1l0.6,1.1l1.1,1.5l1.1,1.3l3.3,3.5l0.5,0.6l2.3,2.4l1.8,2.3l1.6,2.3l1.2,2.2l0.8,1.9
	l0.1,0.2l0.6,2.1l0.4,2.3l0.2,2.3l-0.1,2.3l-0.3,2.3v0.2l-0.6,2.5l-0.8,2.4l-1,2.1l-1,1.7l-1,1.4l-1,1.2l0,0l-1.2,1.1l-1.3,0.9
	l-1.4,0.8l-0.2,0.1l-1.5,0.7l-1.8,0.6l-2,0.5l-2.2,0.3l-2.4,0.1l-1.9-0.1h-0.6l-2-0.3l-1.9-0.5l-1.7-0.6l-1.6-0.8l-1.6-1l-1.5-1.1
	l-0.5-0.5l-0.9-0.8l-1.3-1.5l-1.3-1.8l-1.5-2.7l-1.6-3.5l-0.8-2.3l-0.5-1.4l-0.9-4.1l-0.4-2.9l-0.1-1.5v-0.6l0.1-1.2l0,0l0.2-11.6
	l0.5-23.2l0.2-9.6l0.8-36.8l1-46.4l0.3-13.6l0.2-2.9l0.5-2.8l0.8-2.7l0.5-1.2l0.6-1.5l1.4-2.5l1.7-2.3l1.9-2.1l2.1-1.9l0.3-0.2
	l1.1-0.8l0.9-0.6l2.5-1.4l2.6-1.1l2.7-0.9l1.9-0.4l0.9-0.2l2.8-0.2l2.9,0.1l2.8,0.4l2.2,0.5l0.6,0.2l2.7,1l2.6,1.3L688,2391
	 M679.1,2410.4v-0.6l-0.1-0.6l-0.1-0.3l-0.1-0.2l-0.2-0.6l-0.3-0.5l-0.3-0.5l-0.4-0.5l-0.4-0.4l-0.5-0.4l-0.5-0.3l-0.6-0.3l-0.6-0.2
	l-0.6-0.1l-0.6-0.1h-0.3h-0.3l-0.6,0.1l-0.6,0.1l-0.6,0.2l-0.6,0.2l-0.5,0.3l-0.5,0.4l-0.5,0.4l-0.4,0.5l-0.4,0.5l-0.3,0.5l-0.2,0.6
	l-0.1,0.2l-0.1,0.3l-0.1,0.6v0.6h-0.1l-11.5-0.2l-0.1,4.2l-0.2,11.6l-1,46.4v1.8l23.1,0.5l11.5,0.2v-1.8l1-46.4l0.2-11.6l0.1-4.2
	l-11.5-0.2L679.1,2410.4L679.1,2410.4 M950.8,2535.5h10.3h1.3v-5.9v-23.2v-35h-1.3h-33.3v35v23.2v5.9h10.1h1.5h0.1v0.6l0.1,0.6
	l0.2,0.6l0.2,0.6l0.3,0.5l0.3,0.5l0.4,0.5l0.4,0.4l0.5,0.4l0.5,0.3l0.6,0.3l0.6,0.2h0.1l0.5,0.1l0.6,0.1h0.6l0.6-0.1l0.6-0.1
	l0.6-0.2l0.6-0.3l0.5-0.3l0.5-0.4l0.4-0.4l0.2-0.3l0.1-0.2l0.3-0.5l0.3-0.5l0.2-0.6l0.2-0.6l0.1-0.6L950.8,2535.5 M252.3,2271.4
	l0.5,0.3l2.1,1.1l2.4,1.7l2.2,1.9l2,2.1l1.8,2.4l1.5,2.5l1,2.1l0.3,0.6l0.9,2.8l0.6,2.9l0.3,2.9v2.5v0.5l-0.3,2.9l-0.7,2.9l-1,2.8
	l-1.2,2.5l-0.1,0.1l-3.8,12l-2.3,11.1l-0.3,1.2l-1.3,12.5v9.4v3.1l1.4,12.5l1.6,7.6v0.2l1,4.6l3.9,12l1.2,2.7l0.9,2.8l0.2,1.1
	l0.4,1.8l0.3,2.9v2.9l-0.4,2.9l-0.3,1.2l-0.4,1.7l-1,2.7l-1.2,2.6l-1.5,2.5l-1.6,2.1l-0.1,0.2l-2,2.1l-2.2,1.9l-2.4,1.6l-1.9,1
	l-0.7,0.3l-2.7,1.1l-2.8,0.8l-2.9,0.5l-2.6,0.1h-0.3l-2.9-0.2l-2.9-0.5l-2.8-0.8l-2.7-1.1h-0.1l-2.5-1.3l-2.4-1.6l-2.2-1.9l-2-2.1
	l-0.1-0.2l-1.6-2.1l-1.5-2.5l-1.2-2.6l-1-2.7l-0.4-1.7l-0.3-1.2l-0.4-2.9v-2.9l0.3-2.9l0.4-1.8l0.2-1.1l0.9-2.8l1.2-2.7l3.9-12
	l1-4.8l1.6-7.6l1.4-12.5v-3.1v-9.4l-1.3-12.5l-0.3-1.2l-2.3-11.1l-3.8-12l-0.1-0.1l-1.2-2.5l-1-2.8l-0.7-2.9l-0.3-2.9v-0.5v-2.5
	l0.3-2.9l0.6-2.9l0.9-2.8l0.3-0.6l1-2.1l1.5-2.5l1.8-2.4l2-2.1l2.2-1.9l2.4-1.7l2.6-1.4h0.1l2.6-1.1l2.8-0.8l2.9-0.5l2.9-0.2h0.3
	l2.6,0.1l2.9,0.5l2.8,0.8L252.3,2271.4 M202,2284.5l0.3,1l0.6,1.8l0.6,2.9l0.3,2.9v2.9l-0.1,1.1l-0.2,1.8l-0.6,2.9l-2.6,6.9
	l-1.7,4.6l-3.1,11.9l-1,6.7l-0.9,5.5l-0.7,12.3l0.6,12.3l1.8,12.2l1.1,4.1l2,7.8l4.3,11.6l0.7,2.8l0.1,1l0.3,1.8l0.1,2.9l-0.2,2.9
	l-0.5,2.9l-0.3,1.1l-0.5,1.7l-1.1,2.7l-1.4,2.5l-1.6,2.4l-1.9,2.2l-0.2,0.1l-2,1.8l-2.3,1.7l-2.5,1.5l-2.6,1.2l-2.8,0.9l-0.9,0.2
	l-1.9,0.4l-2.9,0.3h-2.9l-2.9-0.3l-1-0.2l-1.8-0.4l-2.8-0.9l-2.6-1.2l-2.5-1.5l-1.9-1.4l-0.4-0.3l-2-1.8l-0.2-0.1l-1.9-2.2l-1.6-2.4
	l-1.4-2.5l-1.1-2.7l-0.5-1.7l-0.3-1.1l-0.5-2.9l-0.2-2.9l0.1-2.9l0.3-1.8l0.1-1l0.7-2.8l4.3-11.6l2-7.8l1.1-4.1l1.5-10.3l0.3-1.9
	l0.6-12.3l-0.7-12.3l-0.2-1.4l-0.6-4.1l-1-6.7l-3.1-11.9l-1.7-4.6l-2.6-6.9l-0.6-2.9l-0.3-2.9v-2.9l0.3-2.9l0.6-2.9l0.6-1.8l0.3-1
	l1.2-2.7l1.5-2.5l1.8-2.3l2-2.1l1.7-1.4l0.6-0.5l2.4-1.6l2.6-1.4l2.7-1.1l2.8-0.8l0.5-0.1l2.4-0.4l2.9-0.2l2.9,0.2l2.9,0.5l0.5,0.1
	l2.4,0.7l2.7,1.1l2.6,1.4l2.4,1.6l1.1,0.9l1.2,1l2,2.1l1.8,2.3l1.5,2.5L202,2284.5 M229,2509.6l-2.3-2.3l-9.7-9.7l3.1-3.1l-0.8-0.8
	l-5.2-5.2l-5.2,5.2l-0.8,0.8l-0.8-0.8l-3.8-3.8l-1.4-1.4l-28.4,28.4l-10.8,10.8l6,6l-6,6l0.4,0.4l5.5,5.5l0.1,0.1l3.1-3.1l1.9,1.9
	l0.1,0.1l0,0l-0.4,0.5l-0.4,0.5l-0.2,0.3l-0.1,0.2l-0.2,0.6l-0.2,0.6l-0.1,0.6l-0.1,0.6v0.6l0.1,0.6l0.1,0.6l0.2,0.6l0.3,0.6
	l0.2,0.3l0.2,0.3l0.4,0.5l0.4,0.4l0.5,0.4l0.5,0.3l0.5,0.3l0.6,0.2l0.6,0.1l0.6,0.1h0.6h0.6l0.6-0.1l0.6-0.2l0.4-0.2l0.2-0.1
	l0.5-0.3l0.5-0.4l0.5-0.4l2,2l-3.1,3.1l5.5,5.5l0.5,0.5l0.5-0.5l2.6-2.6l1.9-1.9l1-1l5.5,5.5l0.5,0.5l0.5-0.5l4.2-4.2l1.1-1.1
	l5.2,5.2l6.8-6.8l9.4-9.4l-5.2-5.2l1.8-1.8l15.6-15.6l-6-6l1.6-1.6l4.4-4.4l-6-6L229,2509.6 M704.7,1986.4v6.9v12.1h8.5v80.8v92.9
	v18.8h-8.5v17h-77.9h-89.3v-17h-3.6H529v-18.8v-46.4v-23.2v-23.2v-46.4v-34.4h4.9h3.6v-12.1v-6.9h42.9h46.4L704.7,1986.4
	 M472.3,1989.2v4.1v6.5h8.5l-1.1,0.1l-1.2,0.4l-1.1,0.7l-1.1,0.9l-1.1,1.2l-1,1.4l-0.2,0.4l-0.7,1.2l-0.9,1.9l-0.8,2l-0.7,2.2
	l-0.6,2.4l-0.4,1.9l-0.1,0.6l-0.4,2.6l-0.3,2.7l-0.2,2.7l-0.1,2.8v0.2l0.1,2.5l0.2,2.7l0.3,2.7l0.4,2.6l0.2,1.1l0.3,1.4l0.6,2.4
	l0.7,2.2l0.8,2l0.9,1.9l1,1.6l0.1,0.1l1,1.3l0.7,0.8l0.4,0.4l1.1,0.9l1.1,0.7l1.2,0.4l1.1,0.1l1.1,0.2l1.1,0.7l0.2,0.2l0.9,1
	l0.7,1.1l0.3,0.5l1,2l0.3,0.7l0.2,0.6l0.4,1l0.4,1.2l0.5,1.6l0.8,3.1l0.7,3.4l0.7,3.7l0.6,4l0.5,4.2l0.1,0.9l0.3,3.5l0.3,4.5
	l0.2,4.6l0.1,4.7l-0.1,4.7v1.3l-0.1,3.3l-0.3,4.5l-0.4,4.4l-0.5,4.2l-0.6,4l-0.5,2.8l-0.2,0.9l-0.7,3.4l-0.8,3.1l-0.5,1.6l-0.4,1.2
	l-0.5,1.3l-0.4,1.1l-1,2l-1,1.6l-1.1,1.1l-1.1,0.7l-1.1,0.2l0,0l-1,0.1l-1.2,0.4l-1.1,0.7l-1.1,0.9l-0.5,0.5l-0.6,0.7l-1,1.4
	l-0.1,0.2l-0.8,1.4l-0.9,1.9l-0.8,2l-0.7,2.2l-0.6,2.4l-0.3,1.7l-0.2,0.8l-0.4,2.6l-0.3,2.7l-0.2,2.7l-0.1,2.8l0,0l0.1,2.7l0.2,2.7
	l0.3,2.7l0.4,2.6l0.2,0.9l0.3,1.6l0.6,2.4l0.7,2.2l0.8,2l0.9,1.9l0.9,1.5l0.1,0.1l1,1.4l1.1,1.2l1.1,0.9l1.1,0.7l1.2,0.4l1,0.1l0,0
	h-0.7h-0.6h-0.6h-0.6h-0.6H477h-4.7v6.8v3.8h-8H441h-23.2h-2.2v-3.8v-6.8h-5.8h-0.6h-0.6H408h-0.7l1.1-0.1l1.2-0.4l1.1-0.7l1.1-0.9
	l1.1-1.2l1-1.4l0.1-0.1l0.9-1.5l0.9-1.9l0.8-2l0.7-2.2l0.6-2.4l0.1-0.5l0.2-1.1l0.2-0.9l0.4-2.6l0.3-2.7l0.2-2.7l0.1-2.7l0,0
	l-0.1-2.8l-0.2-2.7l-0.3-2.7l-0.4-2.6l-0.2-0.8l-0.2-1.2l-0.1-0.5l-0.6-2.4l-0.7-2.2l-0.8-2l-0.9-1.9l-0.8-1.4l-0.1-0.2l-1-1.4
	l-1.1-1.2l-1.1-0.9l-1.1-0.7l-1.2-0.4l-1.2-0.1l0,0l-0.9-0.1l-0.6-0.1l-1.6-0.7l-1.6-1.1l-1.6-1.6l-1.5-2l-0.6-1.1l-0.8-1.3
	l-1.3-2.8l-1.2-3.1l-0.6-1.9l-0.5-1.6l-0.2-0.9l-0.7-2.8l-0.9-4l-0.7-4.2l-0.1-0.6l-0.5-3.8l-0.4-4.5l-0.2-3.3l-0.1-1.3l-0.1-4.7
	l0.1-4.7l0.1-1l0.2-3.6l0.4-4.5l0.4-3.5l0.1-0.9l0.7-4.2l0.9-4l1-3.7l0.5-1.6l0.6-1.9l1.2-3.1l1.3-2.8l0.6-1l0.8-1.4l1.5-2l1.6-1.6
	l1.6-1.1l1.6-0.7l0.6-0.1l0.9-0.1v-0.1l1-0.1l1.2-0.4l1.1-0.7l1.1-0.9l1.1-1.2l0.9-1.2l0.1-0.2l0.9-1.6l0.9-1.9l0.8-2l0.7-2.2
	l0.6-2.4l0.2-1.2v-0.1l0.2-1.2l0.4-2.6l0.3-2.7l0.2-2.7l0.1-2.4v-0.3l-0.1-2.8l-0.2-2.7l-0.3-2.7l-0.4-2.6l-0.1-0.5l-0.2-0.8
	l-0.2-1.2l-0.6-2.4l-0.7-2.2l-0.8-2l-0.9-1.9l-0.7-1.1l-0.3-0.5l-1-1.4l-1.1-1.2l-1.1-0.9l-1.1-0.7l-1.2-0.4h-0.3h2.5h5.3v-6.5v-4.1
	h2.2H441h31.3 M353.5,1986.1v7.2v3.4h6.3h2.2l-1.1,0.1l-1.2,0.4l0,0l-1.1,0.7l-1.1,0.9l-1.1,1.2l-1,1.4l-1,1.6l-0.9,1.9l0,0l-0.8,2
	l-0.7,2.2l-0.6,2.4l-0.5,2.5l-0.4,2.5v0.1l-0.3,2.7l-0.2,2.7l-0.1,2.8l0.1,2.8v0.6l0.1,2.1l0.3,2.7l0.4,2.6l0.5,2.5l0.4,1.7l0.2,0.6
	l0.7,2.2l0.8,2l0.9,1.9l1,1.6l1,1.4l1.1,1.2l0.7,0.6l0.4,0.3l1.1,0.7l0,0l0.4,0.2l0.7,0.2l1.1,0.1l1.1,0.2l1.1,0.7l0.2,0.2l0.9,1
	l1,1.6l1,2l1,2.4l0.7,2.1l0.2,0.7l0.8,3.1l0.7,3.4l0.6,3.3l0.1,0.4l0.6,4l0.5,4.2l0.3,4v0.4l0.3,4.5l0.2,4.6v2.1v2.5l-0.1,4.7
	l-0.2,4.4v0.2l-0.3,4.5l-0.4,4.4l-0.3,2.5l-0.2,1.7l-0.6,4l-0.1,0.4l-0.6,3.3l-0.5,2.2l-0.3,1.3l-0.8,3.1l-0.9,2.8l-1,2.4l-1,2v0.1
	l-1,1.5l-1.1,1.1l-1.1,0.7l-1.1,0.2l0,0l-1,0.1l-1.2,0.4h-0.1l-1.1,0.6l-1.1,0.9l-1.1,1.2l-1,1.4l-1,1.6l-0.8,1.7l-0.1,0.2l-0.8,2
	l-0.7,2.2l-0.6,2.4l-0.5,2.5l-0.4,2.3v0.3l-0.3,2.7l-0.2,2.7l-0.1,2.8l0.1,2.8v0.4l0.1,2.3l0.3,2.7l0.4,2.6l0.5,2.5l0.4,1.5l0.2,0.9
	l0.7,2.2l0.8,2l0.9,1.9l1,1.6l1,1.4l1.1,1.2l0.5,0.4l0.6,0.5l1.1,0.7l1.2,0.4l1,0.1l0,0h-0.7H360h-0.6h-6.6v9.9v0.7h-5.4H301h-4.9
	V2204h-6.5H289h-0.6h-0.7l1.1-0.1l1.2-0.4l1.1-0.7l0.6-0.5l0.5-0.4l1.1-1.2l1-1.4l0.9-1.6l0.9-1.9l0.8-2l0.7-2.2l0.2-0.9l0.4-1.5
	l0.5-2.5l0.4-2.6l0.3-2.7l0.1-2.3v-0.4l0.1-2.8l-0.1-2.8l-0.2-2.7l-0.3-2.7v-0.3l-0.4-2.3l-0.5-2.5l-0.6-2.4l-0.7-2.2l-0.8-2
	l-0.1-0.2l-0.8-1.7l-0.9-1.6l-1-1.4l-1.1-1.2l-1.1-0.9l-1.1-0.7l-0.6-0.2l-0.6-0.2l-1.2-0.1l0,0l-1.5-0.2l-1.6-0.7l-1.6-1.1
	l-1.5-1.5l-0.1-0.1l-1.5-2l-1.4-2.4l-0.5-1.1l-0.8-1.7l-1.2-3.1l-0.4-1.3l-0.7-2.2l-1-3.7l-0.9-4l-0.7-4.2l-0.6-4.4l-0.4-4.5v-0.2
	l-0.2-4.4l-0.1-4.7v-2.5v-2.1l0.2-4.6l0.4-4.5v-0.4l0.5-4l0.7-4.2l0.9-4l1-3.7l1.1-3.4l1.2-3.1l0.3-0.7l0.5-1l0.5-1.1l1.4-2.4l1.5-2
	l1.6-1.6l0.7-0.5l0.9-0.7l1.6-0.7l1.5-0.2v-0.1l1-0.1l0.7-0.3l0.4-0.1l1.1-0.7l0.3-0.2l0.8-0.7l1.1-1.2l1-1.4l0.9-1.6l0.9-1.9l0.8-2
	l0.7-2.2l0.1-0.6l0.5-1.8l0.5-2.5l0.4-2.6l0.3-2.7l0.1-2v-0.7l0.1-2.8l-0.1-2.8l-0.2-2.7l-0.3-2.7l0,0l-0.4-2.6l-0.5-2.5l-0.6-2.4
	l-0.7-2.2l-0.7-1.9v-0.1l-0.9-1.9l-0.9-1.6l-1-1.4l-1.1-1.2l-1.1-0.9l-1.1-0.7l-0.4-0.1l-0.7-0.3H288h1h6.7v-3.4v-7.2H347
	L353.5,1986.1 M190.2,1980.4l1.8-1.5l1.6-1l0.9-0.5l0.5-0.2l1.3-0.5l1.2-0.3l1.1-0.2l1.2-0.1h1.1l1.1,0.1l1.1,0.3l0.7,0.2l0.5,0.2
	l1.2,0.5l0.8,0.4l0.5,0.3l1.4,1l1.5,1.3l1.8,1.8l1.2,1.4l2.4,3.2l0.1,0.2l3.3,5.6l4.2,8.7v23.6l0.1,43v3.5v1l0,0v10.7v11.6v11.6
	v11.6v16.5v6.8v1.2v22v13.7v7.5v2v4.1v19.1v13.5l-0.3,3.2l-0.6,3.2l-0.9,3.1l-0.1,0.2l-1.2,2.8l-1.6,2.8l-1.9,2.6l-2.2,2.4l-2.4,2.1
	l-2.6,1.9l-1.7,1l-1.1,0.6l-3,1.3l-3.1,0.9l-3.2,0.6l-1.5,0.1l-1.8,0.1l-3.2-0.1l-3.2-0.4l-3.1-0.8l-0.3-0.1l-2.7-1l-2.9-1.4
	l-2.7-1.7l-2.5-2l-0.6-0.6l-1.7-1.7l-2-2.5l-1.7-2.7l-1.4-2.9l-1-2.8l-0.1-0.2l-0.8-3.1l-0.4-3.2l-0.1-3.2l0.1-1.9l0.3-4.6l0.4-7
	l1.4-23.2l1.4-23.2l0.9-14.9l0.2-3.9l0.3-4.4l0.2-3.3l0.4-6.5l0.8-13.4l1.4-23.2l0.3-5l1.1-18.2l0.1-1.5v-0.6l0.7-12.5l1.9-31.8
	l1.4-23.2v-0.3l3.2-5.6l2.4-4.2l3.2-4.6l2.7-3.1L190.2,1980.4 M187.4,2076.5l0.8-0.5l0.7-0.4l0.3-0.1l1.3-0.6l1.7-0.6l1.7-0.4
	l1.8-0.2h1.8l1.8,0.1l1.6,0.3h0.2l1.2,0.4l0.5,0.2l1.7,0.7l1.6,0.8l1.5,1l1.6,1.3l0.5,0.3l0.6,0.2l0,0l0.6,0.1l0.6-0.1l0.6-0.2
	l0.4-0.2l0.2-0.1l0.4-0.4l0.3-0.5l0.2-0.6l0.1-0.6v-0.6l-0.2-0.6l-0.3-0.5l-0.4-0.5l-0.2-0.2l-1.6-1.3l-2-1.3l-0.9-0.5l-1.2-0.7
	l-2.2-0.9l-2.3-0.7l-1.3-0.2l-1-0.2l-2.4-0.2l-2.4,0.1l-2.3,0.3l-2.3,0.5l-1.3,0.4l-1,0.3l-1.3,0.6l-0.9,0.4l-2,1.2l-0.8,0.6
	l-1.1,0.8l-0.2,0.2l-0.4,0.5l-0.3,0.5l-0.2,0.6v0.6l0.1,0.6l0.2,0.6l0.2,0.3l0.4,0.5l0.5,0.4l0.5,0.3l0.2,0.1l0.4,0.1h0.6h0.2
	l0.4-0.1l0.6-0.2l0.5-0.3L187.4,2076.5 M186.4,2110.5l0.7-0.4l0.9-0.5l0.3-0.1l1.3-0.6l1.7-0.6l1.7-0.4l1.8-0.2h1.8l1.8,0.1l1.6,0.3
	h0.2l1.7,0.5l1.7,0.7l1.6,0.8l1.5,1l1.6,1.3l0.5,0.3l0.6,0.2l0,0l0.6,0.1l0.6-0.1l0.6-0.2l0.4-0.2l0.2-0.1l0.4-0.4l0.3-0.5l0.2-0.6
	l0.1-0.6v-0.6l-0.2-0.6l-0.3-0.5l-0.4-0.5l-0.2-0.2l-1.6-1.3l-1.4-0.9l-0.6-0.4l-2.1-1.1l-2.2-0.9l-2.3-0.7l-1.3-0.2l-1-0.2
	l-2.4-0.2l-2.4,0.1l-2.3,0.3l-2.3,0.5l-1.3,0.4l-1,0.3l-2.1,1l-0.6,0.4l-1.4,0.8l-0.8,0.6l-1.1,0.8l-0.2,0.2l-0.4,0.5l-0.3,0.5
	l-0.2,0.6v0.6l0.1,0.6l0.2,0.6l0.2,0.3l0.4,0.5l0.5,0.4l0.5,0.3l0.2,0.1l0.4,0.1h0.6h0.2l0.4-0.1l0.6-0.2l0.5-0.3L186.4,2110.5
	 M187,2143.6l0.3-0.1l1.3-0.6l1.7-0.6l1.7-0.4l1.8-0.2h1.8l1.8,0.1l1.6,0.3h0.2l1.2,0.3l0.5,0.2l1.7,0.7l1.6,0.8l1.5,1l1.6,1.3
	l0.5,0.3l0.6,0.2l0.6,0.1l0.6-0.1l0.6-0.2l0.4-0.2l0.2-0.1l0.4-0.4l0.3-0.5l0.2-0.6l0.1-0.6v-0.6l-0.2-0.6l-0.3-0.5l-0.4-0.5
	l-0.2-0.2l-1.6-1.3l-0.1-0.1l-1.9-1.3l-2.1-1.1l-2.2-0.9l-2.3-0.7l-1.3-0.2l-1-0.2l-2.4-0.2l-2.4,0.1l-2.3,0.3l-2.3,0.5l-1.3,0.4
	l-1,0.3l-2.1,1l-1.9,1.1l-0.1,0.1l-0.8,0.6l-1.1,0.8l-0.2,0.2l-0.4,0.5l-0.3,0.5l-0.2,0.6v0.6l0.1,0.6l0.2,0.6l0.2,0.3l0.4,0.5
	l0.5,0.4l0.5,0.3h0.2h0.1l0.3,0.1h0.6h0.2l0.4-0.1l0.6-0.2l0.5-0.3l1.4-1.1L187,2143.6 M186,2177.6l0.3-0.1l1.3-0.6l1.7-0.6l1.7-0.4
	l1.8-0.2h1.8l1.8,0.1l1.6,0.3h0.2l1.7,0.5l1.7,0.7l1.6,0.8l1.5,1l1.6,1.3l0.5,0.3l0.6,0.2l0,0l0.6,0.1l0.6-0.1l0.6-0.2l0.4-0.2
	l0.2-0.1l0.4-0.4l0.3-0.5l0.2-0.6l0.1-0.6v-0.6l-0.2-0.6l-0.3-0.5l-0.4-0.5l-0.2-0.2l-0.7-0.6l-0.9-0.8l-2-1.3l-2.1-1.1l-2.2-0.9
	l-2.3-0.7l-1.3-0.2l-1-0.2l-2.4-0.2l-2.4,0.1l-2.3,0.3l-2.3,0.5l-1.3,0.4l-1,0.3l-2.1,1l-2,1.2l-1,0.7l-0.9,0.7l-0.2,0.2l-0.4,0.5
	l-0.3,0.5l-0.2,0.6v0.6l0.1,0.6l0.2,0.6l0.2,0.3l0.4,0.5l0.5,0.4l0.5,0.3h0.2h0.1l0.3,0.1h0.6h0.2l0.4-0.1l0.6-0.2l0.5-0.3l1.4-1.1
	L186,2177.6 M566.7,2290l-9.6-9.6l-2.5-2.5l2.5-2.5l0.7-0.7l0,0l-0.7-0.7l-2.2-2.2l-3.1-3.1l-3.1,3.1l-2.9,2.9l-2.9-2.9l-3.1-3.1
	l-3.1,3.1l-2.7,2.7l-33.4,33.4l6,6l-4.3,4.3l-1.7,1.7l6,6l3.1-3.1l1.1,1.1l0.7,0.7l0.1,0.1l0,0l-0.4,0.5l-0.4,0.5l-0.1,0.2l-0.2,0.3
	l-0.2,0.6l-0.2,0.6l-0.1,0.6l-0.1,0.6v0.6l0.1,0.5v0.1l0.1,0.6l0.2,0.6l0.3,0.5l0,0l0.3,0.5l0.4,0.5l0.4,0.4l0.5,0.4l0.5,0.3
	l0.5,0.3l0.6,0.2l0.6,0.1l0.6,0.1h0.6h0.6h0.1l0.5-0.1l0.6-0.2l0.6-0.2l0.5-0.3l0.5-0.4l0.5-0.4l2,2l-0.8,0.8l-2.4,2.4l3.4,3.4
	l2.6,2.6l2.6-2.6l3.5-3.5l3.4,3.4l0.1,0.1l2.6,2.6l2.6-2.6l3.1-3.1l3.1,3.1l2,2l2-2l4.7-4.7l9.4-9.4l-5.2-5.2l3.9-3.9l13.5-13.5
	l-6-6l3.7-3.7l2.3-2.3l-6-6L566.7,2290 M860.5,2383.1l1.5,0.5l1.2,0.4l2.2,1l0.5,0.2l2.5,1.5l2.3,1.7l2.1,2l1.9,2.2l1.6,2.4l0.1,0.2
	l0.6,1l0.7,1.3l1.1,2.7l0.8,2.8l0.5,2.9l0.1,1l0.1,1.9l-0.1,2.9l-0.4,2.9l-0.7,2.8l-0.4,1.1l-3.9,10.5l-3.1,11.9l-1.8,12.2
	l-0.6,11.8v0.5l0.7,12.3l1.9,12.2l3.1,11.9l3.6,9.6l0.7,2l0.6,2.9l0.3,2.9v2.9l-0.1,0.9l-0.2,2l-0.6,2.9l-0.9,2.8l-1.2,2.7l-0.2,0.3
	l-0.6,1l-0.7,1.2l-1.8,2.3l-2,2.1l-2.2,1.9l-2.4,1.6l-2.6,1.4l-2.6,1l-0.1,0.1l-2.8,0.8l-2.9,0.5l-2.4,0.1h-0.5l-2.9-0.2l-2.9-0.5
	l-2.8-0.8l-0.1-0.1l-2.6-1l-2.6-1.4l-2.4-1.6l-2.2-1.9l-2-2.1l-1.8-2.3l-0.3-0.5l-0.4-0.7l-0.8-1.3l-1.2-2.7l-0.9-2.8l-0.6-2.9
	l-0.2-2l-0.1-0.9v-2.9l0.3-2.9l0.6-2.9l0.7-2l3.6-9.6l3.1-11.9l0.3-1.7l1.6-10.4l0.7-12.3v-0.5l-0.6-11.8l-1.8-12.2L832,2429
	l-3.9-10.5l-0.4-1.1l-0.7-2.8l-0.4-2.9l-0.1-2.9l0.1-1.9l0.1-1l0.5-2.9l0.8-2.8l1.1-2.7l1.3-2.3l0.1-0.2l0.3-0.5l1.3-1.9l1.9-2.2
	l2.1-2l2.3-1.7l2.5-1.5l2.6-1.2l1.2-0.4l1.5-0.5l2.8-0.6l2.9-0.3h1.9h1l2.9,0.3L860.5,2383.1 M776.1,2390.8l2.1,0.8l0.6,0.2l0.9,0.5
	l1.7,0.9l2.4,1.6l2.2,1.9l2,2.1l1.8,2.3l1.3,2.2l0.2,0.3l0,0l1.2,2.6l1,2.7l0.7,2.8l0.4,2.9v0.3v2.6l-0.3,2.9l-0.6,2.8l-0.9,2.8
	l-0.2,0.5l-1,2.2l-0.4,1.3l-3.5,10.7l-2,9.1l-0.7,3.2l-0.9,8.4l-0.5,4.2v7.5v5.1l0.6,6.5l0.6,6.1l1.1,5.6l1.4,6.8l3.8,11.9v0.1
	l1.3,2.7l0.6,1.8l0.4,1l0.7,2.9l0.3,2.9v2.9l-0.2,1.9l-0.1,1.1l-0.6,2.9l-0.9,2.8l-1.2,2.7l-0.2,0.4l-1.1,1.8l-0.2,0.3l-1.8,2.4
	l-2,2.1l-2.2,1.9l-2.4,1.7l-1.9,1l-0.7,0.4l-2.7,1.1l-2.6,0.7l-0.3,0.1l-2.9,0.5l-2.4,0.1h-0.5l-2.9-0.2l-2.9-0.5l-0.3-0.1l-2.6-0.7
	l-2.4-1l-0.3-0.1l-2.6-1.4l-2.4-1.7l-2.2-1.9l-2-2.1l-1.8-2.4l-0.2-0.3l0,0l-1.3-2.2l-1.2-2.7l-0.9-2.8l-0.6-2.9l-0.1-1.1l-0.2-1.9
	v-2.9l0.3-2.9l0.7-2.9l0.4-1l0.6-1.8l1.3-2.7l1.1-3.5l2.7-8.5l1.4-6.8l1.1-5.6l0.6-6.1l0.6-6.5v-5.1v-7.5l-0.5-4.2l-0.9-8.4
	l-0.7-3.2l-2-9.1l-2.4-7.4l-1.5-4.6l-1-2.2l-0.2-0.5l-0.9-2.8l-0.6-2.8l-0.3-2.9v-2.6v-0.3l0.4-2.9l0.7-2.8l1-2.7l1.2-2.6l0.2-0.3
	l0.9-1.5l0.4-0.7l1.8-2.3l2-2.1l2.2-1.9l2.4-1.6l2.6-1.3l0.2-0.1l0.4-0.2l2.1-0.8l2.8-0.8l2.9-0.5l2.9-0.2h0.5l2.4,0.1l2.9,0.5
	L776.1,2390.8 M609.3,2413.9l0.7,54.4l0.2,18.2l-0.5,0.6l-3.3,4.4l-8.2,11l-0.5,0.7l-2.6,3.5l-5.5,8.2l-1.9,2.9l-0.9,1.6l-1.8,3.3
	l-1.2,2.8l-0.4,1.1l-0.3,1.1l-0.4,1.7l-0.2,1.4v1.1l0.1,1l0.2,0.9l0.3,0.9l0.4,0.9l0.5,1l0.6,1.1l0.4,0.5l0.7,1l1.1,1.3l0.3,0.3
	l6.2,6l1.9,2.2l1.6,2.3l1.3,2.2l1,2.2l0.7,2.1l0.5,2.3l0.1,1.3l0.1,1v2.3l-0.2,2.5l-0.5,2.5l-0.7,2.4v0.1l-0.3,0.8l-0.6,1.3
	l-0.9,1.7l-1,1.4l-1,1.2l-1.2,1.1l-1.2,1l-1.4,0.9l-1.6,0.8l-1.7,0.7l-0.5,0.1l-1.5,0.4l-2.2,0.4l-2.4,0.2h-2.5l-2-0.2l-1.1-0.2
	l-0.8-0.2l-1.8-0.6l-1.6-0.7l-1.7-0.9l-1.5-1.1l-1.4-1.3l-1.4-1.5l-1.3-1.7l-0.2-0.2l-1.5-2.4l-1.7-3.5l-1.4-3.7l-1.1-4v-0.2
	l-0.4-2.7l-0.1-1.5v-0.6v-1.2l-0.5-40.5l-0.6-46.4l-0.6-46.4l-0.1-7.9l0.1-2.9l0.4-2.8l0.7-2.8l1-2.7l1.3-2.5l1.6-2.4l0.6-0.7
	l1.3-1.5l2.1-2l2.3-1.8l2.4-1.5l2.6-1.2l0.9-0.3l1.8-0.6l2.8-0.6l2.8-0.3h2.9l1.3,0.1l1.5,0.1l2.8,0.6l2.7,0.9l2.6,1.2l2,1.2
	l0.5,0.3l2.3,1.7l2.1,1.9l1.9,2.2l0.5,0.7l1.1,1.7l1.4,2.5l1.1,2.6l0.8,2.7l0.2,1l0.3,1.8L609.3,2413.9 M589.1,2411.9v-0.6l-0.1-0.6
	l-0.1-0.2l-0.1-0.4l-0.2-0.6l-0.3-0.5l-0.4-0.5l-0.4-0.5l-0.5-0.4l-0.5-0.4l-0.5-0.3l-0.5-0.2l0,0l-0.6-0.2l-0.6-0.1l-0.6-0.1h-0.6
	l-0.6,0.1l-0.6,0.1l-0.6,0.2l-0.6,0.3l-0.5,0.3l-0.5,0.4l-0.4,0.4l-0.4,0.5l-0.3,0.5l-0.3,0.5l-0.2,0.6l-0.1,0.4l-0.1,0.2l-0.1,0.6
	v0.6h-0.2l-11.4,0.1l0.1,10.2l0.6,46.4l0.1,7.4l19.4-0.2l15.2-0.2l-0.1-7.4l-0.6-46.4l-0.1-10.2L589.1,2411.9L589.1,2411.9
	 M919.9,2295.6l-0.2-0.3l-0.1-0.2l-0.4-0.4l-0.5-0.3l-0.6-0.2l-0.6-0.1h-0.3l-0.6,0.1l-0.6,0.3l-0.5,0.4l-0.4,0.5l-0.3,0.5l-0.2,0.6
	l0,0v0.6l0.1,0.6l0.2,0.6l0.3,0.5l0.4,0.4l0.4,0.2l0.1,0.1l0.6,0.2l0.6,0.1l0.6-0.1l0.6-0.2l0.1-0.1l0.4-0.2l0.4-0.4l0.1-0.2
	l0.1-0.1l0.3-0.5l0.2-0.6v-0.6l-0.1-0.6L919.9,2295.6 M1042,2431.7l-9.7,13l-7.6,10.2l-1.5,2l-0.2,0.2l-0.2,0.5l-0.1,0.6v0.6
	l0.1,0.6l0.2,0.5l0.3,0.5l0.4,0.4l0.5,0.3l0.6,0.2l0.6,0.1h6.8h11.6h0.5h0.3l0.6-0.1l0.5-0.2l0.5-0.3l0.4-0.4l0.3-0.5l0.2-0.6
	l0.1-0.6v-3.7v-21.6v-0.3l-0.1-0.6l-0.3-0.6l-0.1-0.1l-0.3-0.3l-0.5-0.4l-0.5-0.3l-0.6-0.2h-0.6l-0.3,0.1l-0.3,0.1l-0.6,0.2
	l-0.5,0.3L1042,2431.7L1042,2431.7 M1006.7,2004.4l-0.5-0.3h-0.1l-0.6-0.2h-0.6l-0.6,0.1l-0.6,0.2l-0.5,0.3l-0.4,0.5l-0.3,0.4
	l-8.7,11.6l-8.7,11.6l-1.3,1.7l-0.2,0.2l-0.2,0.5l-0.1,0.6v0.6l0.1,0.6l0.2,0.5l0.3,0.5l0.4,0.4l0.5,0.3l0.6,0.2l0.6,0.1h8.4h10.5
	h0.3l0.6-0.1l0.2-0.1l0.3-0.1l0.5-0.3l0.4-0.4l0.3-0.5l0.2-0.6l0.1-0.6v-15v-10.3v-0.3l-0.1-0.6l-0.3-0.6l-0.4-0.5L1006.7,2004.4
	 M309.8,2293.8l-0.4,0.1l-0.6,0.2l-0.9,0.4l-0.9,0.5l-0.8,0.6l-0.8,0.7l-0.7,0.8l-0.6,0.8l-0.5,0.9l-0.4,0.9l-0.3,1l-0.2,1l-0.1,1v1
	v0.1l2,23.2l2,22.9l0.1,0.4v0.2l0.1,0.6l0.2,0.6l0.3,0.5l0.3,0.5l0.4,0.5l0.4,0.4l0.5,0.4l0.5,0.3h0.1l0.5,0.3l0.6,0.2l0.6,0.2
	l0.6,0.1h0.6h0.6l0.6-0.1l0.6-0.2l0.6-0.2l0.5-0.3l0,0l0.5-0.3l0.5-0.4l0.4-0.4l0.4-0.5l0.3-0.5l0.3-0.5l0.2-0.6l0.1-0.6v-0.2
	l0.1-0.4l3.9-46.1v-0.1v-1l-0.1-1l-0.2-1l-0.3-1l-0.4-0.9l0,0l-0.5-0.9l-0.6-0.8l-0.7-0.8l-0.8-0.7l-0.8-0.6l-0.9-0.5l-0.9-0.4
	l-1-0.3l-1-0.2l-1-0.1h-1l-1,0.1L309.8,2293.8 M386.1,2300.1l-0.5,0.2h-0.1l-0.5,0.3l-0.4,0.4l-0.3,0.5l-0.2,0.6l-0.1,0.6v0.6
	l0.2,0.6l0.3,0.5l0.2,0.2l0.4,0.4h0.1l0.5,0.3l0.6,0.2l0.6,0.1l0.6-0.1l0.6-0.2l0.5-0.3h0.1l0.4-0.4l0.3-0.5l0.2-0.6l0.1-0.6v-0.6
	l-0.2-0.6l-0.3-0.5l-0.4-0.5l-0.5-0.4l-0.6-0.3l-0.6-0.1h-0.3L386.1,2300.1 M309.5,2363L309.5,2363l-0.5,0.3l-0.5,0.4l-0.4,0.4
	l-0.4,0.5l-0.3,0.5l-0.3,0.5l-0.2,0.6l-0.1,0.6l-0.1,0.6l-0.5,6.2l-2,23.2l-1,11.6l-0.4,5.1v1l0.1,1l0.2,1l0.3,1l0.4,0.9l0.5,0.9
	l0.4,0.6l0.2,0.3l0.7,0.8l0.8,0.7l0.8,0.6l0.9,0.5l0.9,0.4l0.6,0.2l0.4,0.1l1,0.2l1,0.1h1l1-0.1l1-0.2l1-0.3l0.9-0.4l0.9-0.5
	l0.8-0.6l0.8-0.7l0.7-0.8l0.2-0.3l0.4-0.6l0.5-0.9l0,0l0.4-0.9l0.3-1l0.2-1l0.1-1v-1l-0.4-5.1l-1-11.6l-2-23.2l-0.5-5.8v-0.4
	l-0.1-0.6l-0.1-0.6l-0.2-0.6l-0.3-0.5l-0.3-0.5l-0.4-0.5l-0.4-0.4l-0.5-0.4l-0.5-0.3l0,0l-0.5-0.3l-0.6-0.2l-0.6-0.2l-0.6-0.1h-0.6
	H312l-0.6,0.1l-0.6,0.2l-0.6,0.2L309.5,2363 M387.1,2411.4h-0.3l-0.6,0.1l-0.5,0.2h-0.1l-0.5,0.3l-0.4,0.4l-0.3,0.5l-0.2,0.6
	l-0.1,0.6v0.6l0.2,0.6l0.1,0.2l0.2,0.4l0.2,0.2l0.4,0.4l0.5,0.3l0.6,0.2l0.6,0.1l0.6-0.1l0.6-0.2l0.5-0.3l0.4-0.4l0.3-0.5v-0.1
	l0.2-0.5l0.1-0.6v-0.6l-0.2-0.6l-0.3-0.5l-0.4-0.5l-0.5-0.4l-0.6-0.3L387.1,2411.4 M1386.9,2099.4l-0.4,0.4l0,0l-0.3,0.5l-0.2,0.6
	l-0.1,0.6v0.6l0.2,0.6l0.3,0.5l0.2,0.2l4.5,6.3l3.5,4.9l0.4,0.4l0.5,0.4l0.5,0.2l0.6,0.1h0.6l0.6-0.1l0.5-0.2h0.1l0.5-0.3l0.4-0.4
	l0.2-0.2l2.8-4.7l6.6-11.2l-10.5,0.1l-9.5,0.1l-0.6,0.1l-0.6,0.2L1386.9,2099.4 M1253.7,2040l-1.3-0.3l-1.1-0.3l-2.4-0.3h-2.5
	l-2.4,0.3l-1.1,0.3l-0.7,0.2l-0.5,0.1l-2.3,0.8l-2.2,1l-2.1,1.3l-2,1.5l-1.8,1.7l-0.7,0.8l-0.9,1.1l-1.4,2l-0.6,1.2l-0.5,1l-0.9,2.3
	l-0.7,2.4l-0.4,2.4l-0.1,2.5l0.1,1.1l0.1,1.4l0.4,2.4l0.7,2.4l0.9,2.3l1.1,2.2l0.7,1l0.7,1l0.9,1.1l0,0l0.7,0.8l1.8,1.7l2,1.5
	l2.1,1.3l2.2,1l2.3,0.8l0.5,0.1l1.8,0.4l2.4,0.3h2.5l2.4-0.3l2.4-0.5l0,0l2.3-0.8l2.2-1l2.1-1.3l2-1.5l1.8-1.7l1.6-1.9l0.7-1l0.7-1
	l1.2-2.2l0.9-2.3l0.7-2.4l0.4-2.4l0.1-1.4l0.1-1.1l-0.1-2.5l-0.4-2.4l-0.7-2.4l-0.9-2.3l-0.5-1l-0.6-1.2l-1.4-2l-0.3-0.4l-1.2-1.5
	l-1.8-1.7l-2-1.5l-2.1-1.3l-2.2-1L1253.7,2040L1253.7,2040 M1221.2,2085.3v0.9v8.3v3.3v5.2v6.4v2.8h9.3v-2.8v-11.6v-11.6v-0.9
	L1221.2,2085.3 M1398.4,2210l-0.3-0.2l-0.2-0.1l-0.6-0.2l-0.6-0.1l-0.6,0.1l-0.6,0.2l-0.5,0.3l-0.4,0.4l-0.2,0.2l-2.5,3.5l-5.5,7.6
	l-0.2,0.2l-0.3,0.5l-0.2,0.6v0.6l0.1,0.6l0.2,0.6l0.3,0.5l0,0l0.3,0.3l0.1,0.1l0.5,0.3l0.6,0.2l0.6,0.1l9.5,0.1l10.5,0.1l-0.6-1
	l-8.8-14.9l-0.4-0.5L1398.4,2210 M1336,2319.6l-0.9-0.2h-0.1l-1.1-0.1h-1.1l-1.1,0.1l-1,0.2l-1,0.3l-1,0.5l-0.9,0.6l-0.9,0.6
	l-0.8,0.7l-0.7,0.8l-0.6,0.9l-0.2,0.4l-0.3,0.5l-0.4,1l-0.3,1l-0.2,1.1v0.2v0.9v0.9v0.2l0.2,1.1l0.3,1l0.4,1l0.5,0.9l0.6,0.9
	l0.7,0.8l0.1,0.1l0.7,0.6l0.9,0.6l0.9,0.6l1,0.5l1,0.3l1,0.2l1.1,0.1h1.1l1.1-0.1h0.1l0.9-0.2l1-0.3l1-0.5l0.9-0.6l0.9-0.6l0.7-0.6
	l0.1-0.1l0.7-0.8l0.6-0.9l0.5-0.9l0.4-1l0.3-1l0.2-1.1l0.1-1.1l-0.1-1.1l-0.2-1.1l-0.3-1l-0.4-1l-0.3-0.5l-0.2-0.4l-0.6-0.9
	l-0.7-0.8l-0.8-0.7l-0.9-0.6l-0.9-0.6l-1-0.5L1336,2319.6 M1358.3,2355.1h-11.6h-23.2h-18.7v8.5h18.7h23.2h15.2v-4.2v-4.1v-0.2
	H1358.3 M1253.9,2113h-0.2l-2.3-0.5l-2.5-0.3h-2.5l-2.5,0.3l-1.7,0.4l-0.7,0.2l-2.4,0.8l-2.3,1.1l-2.2,1.3l-2,1.5l-1.8,1.7l-0.2,0.2
	l0,0l-1.1,1.3l-0.3,0.4l-1.4,2.1l-1.2,2.2l-0.9,2.4l-0.7,2.4l-0.3,2.1l-0.1,0.4l-0.1,2.5l0.1,2.5l0.4,2.5l0.7,2.4l0.5,1.2l0.5,1.2
	l1.2,2.2l1.4,2.1l1.5,1.8l0.2,0.2l1.8,1.7l2,1.5l1.5,0.9l0.6,0.4l2.3,1.1l2.4,0.8l0.7,0.2l1.7,0.4l2.5,0.3h2.5l2.5-0.3l2.3-0.5h0.2
	l2.4-0.8l2.3-1.1l0.6-0.4l1.5-0.9l2-1.5l1.8-1.7l0.7-0.9l0.9-1.1l1.4-2.1l1.2-2.2l0.5-1.2l0.5-1.2l0.7-2.4l0.4-2.5l0.1-2.5l-0.1-2.5
	l-0.1-0.4l-0.3-2.1l-0.7-2.4l-0.9-2.4l-1.2-2.2l-1.4-2.1l-0.3-0.4l-0.6-0.7l-0.7-0.9l-1.8-1.7l-2-1.5l-2.2-1.3l-2.3-1.1L1253.9,2113
	 M1207.3,2212.5l-23.2,2l-11.6,1l-3,0.3l-0.6,0.1l-0.6,0.1l-0.6,0.2l-0.5,0.3l-0.5,0.3l-0.5,0.4l-0.4,0.4l-0.4,0.5l-0.3,0.5
	l-0.3,0.5l-0.2,0.6v0.1l-0.1,0.5l-0.1,0.6v0.6v0.6l0.1,0.6l0.2,0.6l0.2,0.6l0.3,0.5l0.3,0.5l0.4,0.5l0.3,0.3l0.1,0.1l0.5,0.4
	l0.5,0.3l0.5,0.3l0.6,0.2l0.6,0.1l0.6,0.1l14.6,1.3l23.2,2l8.3,0.7h1l1-0.1l1-0.2l0.3-0.1l0.7-0.2l1-0.4l0.9-0.5l0.8-0.6l0.8-0.7
	l0.7-0.8l0.6-0.8l0.5-0.9l0.1-0.3l0.3-0.6l0.3-1l0.2-1l0.1-1v-1l-0.1-1l-0.2-1l-0.3-1l-0.4-0.9l-0.5-0.9l-0.6-0.8l-0.7-0.8l-0.6-0.5
	l-0.2-0.1l-0.8-0.6l-0.9-0.5l-1-0.4l-0.7-0.2l-0.3-0.1l-1-0.2l-1-0.1h-1L1207.3,2212.5 M1218.9,2262.9l-11.6,1l-23.2,2l-10.4,0.9
	l-0.6,0.1l-0.6,0.1h-0.1l-0.5,0.2l-0.5,0.3l-0.5,0.3l-0.5,0.4l-0.4,0.4l-0.4,0.5l-0.3,0.5l-0.3,0.5l-0.2,0.6l-0.2,0.6l-0.1,0.6v0.2
	v0.4v0.6l0.1,0.6l0.2,0.6l0.2,0.6l0.3,0.5l0.3,0.5l0.4,0.5l0.4,0.4l0.5,0.4l0.5,0.3l0.5,0.3l0.5,0.2h0.1l0.6,0.1l0.6,0.1l10.4,0.9
	l23.2,2l11.6,1l0.9,0.1h1l1-0.1l1-0.2l1-0.3l1-0.4l0.9-0.5l0.8-0.6l0.8-0.7l0.7-0.8l0.6-0.8l0,0l0.5-0.9l0.4-0.9l0.3-1l0.2-1l0.1-1
	v-1v-0.1l-0.1-1l-0.2-1l-0.3-1l-0.4-0.9l-0.5-0.9l-0.6-0.8l-0.1-0.1l-0.6-0.7l-0.8-0.7l-0.8-0.6l-0.9-0.5l-1-0.4l-1-0.3l-1-0.2
	l-1-0.1h-1L1218.9,2262.9 M931.6,2061.6l-3-8.9l-0.4-1.3l-1.8-5.4l-0.2-0.4l-0.1-0.4l-0.3-0.8l-0.3-0.7l-0.3-0.6l-0.3-0.6l-0.3-0.5
	l-0.3-0.4l-0.3-0.2l-0.2-0.1h-0.2l-0.8,0.4l-2.4,1.2l-0.1,0.1l-0.1,0.3v0.4v0.5l0.1,0.6l0.1,0.7l0,0l0.1,0.7l0.2,0.8l0.2,0.8
	l0.3,0.8l0.9,2.7l3.9,11.6l0.4,1.3l0.3,0.8l0.3,0.8l0.3,0.7l0.3,0.7l0.3,0.6l0.3,0.5l0.3,0.4l0.1,0.1l0.1,0.1l0.2,0.1h0.2l3.1-1.6
	l0.1-0.2l0.1-0.3v-0.4v-0.5l-0.1-0.6l-0.1-0.7l-0.1-0.7l-0.2-0.8l-0.1-0.3l-0.2-0.6V2061.6 M407.3,2556.6h-18.1h-92.9h-46.4h-12.7
	v6.8v1.7h12.7h46.4h92.9h18.1v-1.7V2556.6 M889.8,2045.5v5.8v11.6v3.2v0.4v0.4l0.1,0.4l0.1,0.4l0.1,0.3l0.1,0.3l0.1,0.2l0.1,0.2
	l0.1,0.1h0.1h3.2h3.6h0.1l0.1-0.1l0.1-0.2l0.1-0.2l0.1-0.3l0.1-0.3l0.1-0.4l0.1-0.4v-0.4v-0.4v-3.2v-11.6v-7.7v-0.4v-0.4l-0.1-0.4
	l-0.1-0.4l-0.1-0.3l-0.1-0.3l-0.1-0.2l-0.1-0.2l-0.1-0.1h-0.1h-3.6h-3.2h-0.1l-0.1,0.1l-0.1,0.2l-0.1,0.2l-0.1,0.3l-0.1,0.3
	l-0.1,0.4l-0.1,0.4v0.4v0.4V2045.5 M801,2043.4l-0.2-0.4l-0.3-0.6l-0.3-0.5l-0.3-0.4l-0.3-0.2l-0.2-0.1h-0.2l-3.1,1.6l-0.1,0.1
	l-0.1,0.3v0.4v0.5l0.1,0.6l0.1,0.7l0,0l0.1,0.7l0.2,0.8l0.2,0.8l0.3,0.8l0.9,2.7l3.9,11.6l0.4,1.3l0.3,0.8l0.3,0.8l0.3,0.7l0.3,0.7
	l0.3,0.6l0.3,0.5l0.3,0.4l0.2,0.2l0.1,0.1l0.2,0.1h0.2l0.3-0.2l1.7-0.9l1.1-0.6l0.1-0.2l0.1-0.3v-0.4v-0.5l-0.1-0.6l-0.1-0.7
	l-0.1-0.7l-0.2-0.8l-0.1-0.3l-0.2-0.6l-0.3-0.8l-3.4-10.2l-1.8-5.4l-0.3-0.8l-0.3-0.8l-0.3-0.7L801,2043.4 M773.9,2043.7v-0.4v-0.4
	l-0.1-0.4l-0.1-0.4l-0.1-0.3l-0.1-0.3l-0.1-0.2l-0.1-0.2l-0.1-0.1h-0.1h-6.8h-0.1l0,0l-0.1,0.1l-0.1,0.2l-0.1,0.2l-0.1,0.3l-0.1,0.3
	l-0.1,0.4l-0.1,0.4v0.4v0.4v1.9v5.8v11.6v3.2v0.4v0.4l0.1,0.4l0.1,0.4l0.1,0.3l0.1,0.3l0.1,0.2l0.1,0.2l0.1,0.1l0,0h0.1h6.8h0.1
	l0.1-0.1l0.1-0.2l0.1-0.2l0.1-0.3l0.1-0.3l0.1-0.4l0.1-0.4v-0.4v-0.4v-3.2v-11.6V2043.7 M1033.2,2100.3L1033.2,2100.3l-0.5,0.4
	l-0.4,0.5l-0.3,0.5l-0.2,0.6v0.6l0.1,0.6l0.2,0.6l0.3,0.5l0.4,0.4l0.2,0.1l0.3,0.2l0.6,0.2l0.6,0.1l0.6-0.1l0.6-0.2l0.5-0.3l0.4-0.4
	l0.2-0.2l0.3-0.5v-0.1l0.1-0.5v-0.6l-0.1-0.6l-0.2-0.6l-0.3-0.5l-0.4-0.4l-0.5-0.3l-0.6-0.2l-0.6-0.1h-0.3l-0.6,0.1L1033.2,2100.3
	 M952.2,2098.9l-0.3,0.1h-0.2l-0.4,0.3l-0.3,0.4l-0.2,0.5l-0.1,0.5l0.1,0.5l0.2,0.5l0.3,0.4l0.4,0.2h0.2l0.3,0.1l0.4-0.1l0.4-0.2
	l0.3-0.4l0.2-0.5l0.1-0.5l-0.1-0.5l-0.2-0.5l-0.3-0.4l-0.4-0.3L952.2,2098.9 M929,2132.3l-0.2,0.1l-0.1,0.1l-0.2,0.1l-0.3,0.4
	l-0.3,0.5l-0.3,0.6l-0.3,0.7l-0.3,0.7l-0.3,0.8l-0.3,0.8l-2.4,7.3l-2.8,8.3l-0.3,0.8l-0.2,0.8l-0.2,0.8l-0.1,0.7v0.1l-0.1,0.5
	l-0.1,0.6v0.5v0.4l0.1,0.3l0.1,0.1l2.4,1.2l0.8,0.4h0.2l0.2-0.1l0.3-0.2l0.3-0.4l0.3-0.5l0.3-0.6l0.3-0.7l0.3-0.7l0.3-0.8l0.1-0.2
	l0.2-0.6l2.2-6.7l1.4-4.3l1.5-4.6l0.3-0.8l0.2-0.8l0.2-0.8l0.1-0.7l0.1-0.7l0.1-0.6v-0.5v-0.4l-0.1-0.3l-0.1-0.1l-2.5-1.3l-0.6-0.3
	L929,2132.3 M872.6,2098.9l-0.4,0.3l-0.3,0.4l-0.2,0.5l-0.1,0.5v0.1l0.1,0.5l0.2,0.5l0.3,0.4l0.4,0.2l0.4,0.1l0.4-0.1l0.4-0.2
	l0.3-0.4l0.2-0.5l0.1-0.5v-0.1l-0.1-0.5l-0.2-0.5l-0.3-0.4l-0.4-0.3l-0.4-0.1L872.6,2098.9 M897.5,2132.2h-3.6h-3.2h-0.1l-0.1,0.1
	l-0.1,0.2v0.1l-0.1,0.2l-0.1,0.3l-0.1,0.3l-0.1,0.4l-0.1,0.4v0.4v0.4v9.2v11.6v1.7v0.4v0.4l0.1,0.4l0.1,0.4l0.1,0.3l0.1,0.3l0.1,0.2
	l0.1,0.2l0.1,0.1h0.1h3.2h3.6h0.1l0.1-0.1l0.1-0.2l0.1-0.2l0.1-0.3l0.1-0.3l0.1-0.4l0.1-0.4v-0.4v-0.4v-1.7v-11.6v-9.2v-0.4v-0.4
	l-0.1-0.4l-0.1-0.4l-0.1-0.3l-0.1-0.3l-0.1-0.2v-0.1l-0.1-0.2L897.5,2132.2L897.5,2132.2 M826.3,2100.6L826.3,2100.6l0.1,0.5
	l0.2,0.5l0.3,0.4l0.4,0.2l0.4,0.1l0.4-0.1l0.4-0.2l0.3-0.4l0.2-0.5l0.1-0.5v-0.1l-0.1-0.5l-0.2-0.5l-0.3-0.4l-0.4-0.3l-0.4-0.1
	l-0.4,0.1l-0.4,0.3l-0.3,0.4l-0.2,0.5L826.3,2100.6 M804.6,2132.3l-0.2,0.1l-0.3,0.2l-0.3,0.4l-0.3,0.5l-0.3,0.6l-0.3,0.7l-0.3,0.7
	l-0.3,0.8l-0.3,0.8l-0.5,1.5l-0.5,1.5l-1.4,4.3l-2.8,8.3l-0.3,0.8l-0.2,0.8l-0.2,0.8l-0.1,0.7v0.1l-0.1,0.5l-0.1,0.6v0.5v0.4
	l0.1,0.3l0.1,0.1l3.1,1.6h0.2l0.2-0.1l0.3-0.2l0.3-0.4l0.3-0.5l0.3-0.6l0.2-0.4l0.1-0.3l0.3-0.7l0.3-0.8l0.1-0.2l0.2-0.6l3.7-11
	l1.5-4.6l0.3-0.8l0.1-0.4l0.1-0.4l0.2-0.8l0.1-0.7l0.1-0.7l0.1-0.6v-0.5v-0.4l-0.1-0.3l-0.1-0.1l-1.1-0.6l-1.4-0.7l-0.6-0.3
	L804.6,2132.3 M766.2,2132.2L766.2,2132.2L766.2,2132.2l-0.2,0.1l-0.1,0.2v0.1l-0.1,0.2l-0.1,0.3l-0.1,0.3l-0.1,0.4l-0.1,0.4v0.4
	v0.4v9.2v11.6v1.7v0.4v0.4l0.1,0.4l0.1,0.4l0.1,0.3l0.1,0.3l0.1,0.2l0.1,0.2l0.1,0.1l0,0h0.1h6.8h0.1l0.1-0.1l0.1-0.2l0.1-0.2
	l0.1-0.3l0.1-0.3l0.1-0.4l0.1-0.4v-0.4v-0.4v-1.7v-11.6v-9.2v-0.4v-0.4l-0.1-0.4l-0.1-0.4l-0.1-0.3l-0.1-0.3l-0.1-0.2v-0.1l-0.1-0.2
	l-0.1-0.1H773H766.2 M750,2100.1l-0.2-0.5l-0.3-0.4l-0.4-0.3l-0.4-0.1h-0.1l-0.4,0.1l-0.4,0.3l-0.3,0.4l-0.2,0.5l-0.1,0.5l0.1,0.5
	l0.2,0.5l0.3,0.4l0.4,0.2l0.4,0.1h0.1l0.4-0.1l0.4-0.2l0.3-0.4l0.2-0.5l0.1-0.5L750,2100.1 M745,2336.9h-25.3h-92.9h-46.4H575v4.7
	v3.8h5.4h46.4h92.9H745v-3.8V2336.9 M1202.5,2403.1L1202.5,2403.1l-0.2-0.6l-0.3-0.5l-0.2-0.2l-0.4-0.4l-0.4-0.2l-0.1-0.1l-0.6-0.2
	l-0.6-0.1l-0.6,0.1l-0.6,0.2l-0.1,0.1l-0.4,0.2l-0.4,0.4l-0.3,0.5l-0.2,0.6l-0.1,0.6v0.6v0.1l0.2,0.6l0.3,0.5l0.4,0.5l0.5,0.4
	l0.6,0.3l0.6,0.1h0.3l0.6-0.1l0.6-0.2l0.5-0.3l0.4-0.4l0.3-0.5l0.2-0.6v-0.3l0.1-0.3L1202.5,2403.1 M1115.2,2394.8l-0.6,0.4
	l-0.2,0.2l-0.8,0.7l-0.4,0.5l-0.2,0.3l-0.6,0.8l-0.5,0.9l-0.4,0.9l-0.3,1l-0.2,1l-0.1,1v1l0.3,3.2l1,11.6l2,23.2l0.7,8.1l0.1,0.6
	l0.1,0.6l0.2,0.6l0.3,0.5l0.3,0.5l0.4,0.5l0.2,0.2l0.2,0.2l0.5,0.4l0.5,0.3l0.5,0.3l0.6,0.2l0.2,0.1l0.4,0.1l0.6,0.1h0.6h0.6
	l0.6-0.1l0.6-0.2l0.6-0.2l0.5-0.3l0.5-0.3l0.5-0.4l0.2-0.2l0.2-0.2l0,0l0.4-0.5l0.3-0.5l0.3-0.5l0.2-0.6l0.1-0.6l0.1-0.6l0.7-8.1
	l2-23.2l1-11.6l0.3-3.2v-1l-0.1-1l-0.2-1l-0.3-1l-0.4-0.9l-0.5-0.9l-0.6-0.8l-0.7-0.8l-0.8-0.7l-0.2-0.2l-0.6-0.4l-0.9-0.5l-0.2-0.1
	l-0.7-0.3l-1-0.3l-1-0.2l-1-0.1h-1l-1,0.1l-1,0.2l-1,0.3l-0.9,0.4L1115.2,2394.8 M1124.8,2463.9l-0.4-0.4l-0.5-0.4l-0.5-0.3
	l-0.5-0.3l-0.6-0.2l-0.6-0.2l-0.6-0.1h-0.6h-0.6l-0.6,0.1l-0.4,0.1l-0.2,0.1l-0.6,0.2l-0.5,0.3l-0.5,0.3l-0.5,0.4l-0.4,0.4l-0.4,0.5
	l-0.3,0.5l0,0l-0.3,0.5l-0.2,0.6l-0.1,0.6l-0.1,0.6l-1.8,21l-2,23.2l-0.2,2v1l0.1,1l0.2,1l0.3,1l0.4,0.9l0.5,0.9l0.6,0.8l0.2,0.3
	l0.4,0.5l0.8,0.7l0.8,0.6l0.9,0.5l0.6,0.3l0.3,0.2l1,0.3l1,0.2l1,0.1h1l1-0.1l1-0.2l1-0.3l0.3-0.2l0.4-0.2l0.2-0.1l0.9-0.5l0.8-0.6
	l0.8-0.7l0.7-0.8l0.6-0.8l0.5-0.9l0.4-0.9l0.3-1l0.2-1l0.1-1v-1l-0.2-2l-2-23.2l-1.8-21l-0.1-0.6l-0.1-0.6l-0.2-0.6l-0.3-0.5l0,0
	l-0.3-0.5L1124.8,2463.9L1124.8,2463.9 M1202.5,2514.4L1202.5,2514.4l-0.1-0.2l-0.1-0.4l-0.3-0.5l-0.2-0.2l-0.4-0.4l-0.5-0.3
	l-0.6-0.2l-0.6-0.1l-0.6,0.1l-0.6,0.2l-0.5,0.3l-0.4,0.4l-0.3,0.5l-0.2,0.6v0.1l-0.1,0.5v0.6l0.2,0.6l0.3,0.5l0.4,0.5l0.2,0.2
	l0.2,0.2l0.6,0.3l0.6,0.1h0.3l0.6-0.1l0.6-0.2l0.5-0.3l0,0l0.4-0.4l0.3-0.5l0.2-0.6v-0.3l0.1-0.3V2514.4 M676.9,2491.5l-0.6-0.2
	l-0.6-0.1l-9.8-0.2l-9.1-0.2h-0.3l-0.6,0.1l-0.5,0.2l-0.5,0.3l-0.4,0.4l-0.2,0.4l-0.1,0.1l-0.2,0.6l-0.1,0.6l-0.5,25v0.3v0.3
	l0.1,0.6l0.2,0.4l0.1,0.2l0.4,0.5l0.5,0.4l0.5,0.3l0.6,0.2h0.6l0.6-0.1l0.6-0.2l0.5-0.3l0.4-0.4l1.5-2l17.9-22.9l0.1-0.1l0.2-0.2
	l0.3-0.5l0.1-0.6v-0.6l-0.1-0.6l-0.2-0.5l-0.3-0.5l-0.3-0.3l-0.1-0.1L676.9,2491.5 M241.5,2286.3h-0.2h-0.8l-1,0.1l-1,0.2l-1,0.3
	l-0.9,0.4l-0.9,0.5l-0.8,0.6l-0.8,0.7l-0.7,0.8l-0.6,0.8l-0.2,0.4l-0.3,0.5l-0.4,0.9l-0.3,1l-0.2,1l-0.1,1v1v0.3l1,11.6l2,23.2
	l0.9,11l0.1,0.6l0,0l0.1,0.5l0.2,0.6l0.3,0.5l0.3,0.5l0.4,0.5l0.4,0.4l0.5,0.4l0.5,0.3l0.5,0.3l0.6,0.2l0.6,0.2l0.6,0.1h0.6h0.3h0.3
	l0.6-0.1l0.6-0.2l0.6-0.2l0.5-0.3l0.5-0.3l0.5-0.4l0.4-0.4l0.4-0.5l0.3-0.5l0.3-0.5l0.2-0.6l0.1-0.5l0,0l0.1-0.6l0.9-11l2-23.2
	l1-11.6v-0.3v-1l-0.1-1l-0.2-1l-0.3-1l-0.4-0.9l-0.3-0.5l-0.2-0.4l-0.6-0.8l-0.7-0.8l-0.8-0.7l-0.8-0.6l-0.9-0.5l-0.9-0.4l-1-0.3
	l-1-0.2L241.5,2286.3 M178.1,2297.1l0.5-0.3l0.4-0.4l0.3-0.5l0.2-0.6l0.1-0.6v-0.6l-0.2-0.6l-0.3-0.5l-0.4-0.5l-0.5-0.4l-0.6-0.3
	l-0.4-0.1H177h-0.3l-0.6,0.1l-0.6,0.2l-0.5,0.3l-0.4,0.4l-0.3,0.5l-0.2,0.6l-0.1,0.6v0.6l0.2,0.6l0.3,0.5l0.2,0.2l0.4,0.4l0.5,0.3
	l0,0l0.6,0.2l0.6,0.1l0.6-0.1L178.1,2297.1L178.1,2297.1 M240.2,2355.2l-0.5,0.1l-0.6,0.2l-0.6,0.2l-0.5,0.3l-0.5,0.3l-0.5,0.4
	l-0.4,0.4l-0.4,0.5l-0.3,0.5l-0.3,0.5l-0.2,0.6l-0.1,0.6l-0.1,0.6l-0.6,6.5l-1,11.6l-2,23.2l-0.4,4.8v1l0.1,1l0.2,1l0.3,1l0.4,0.9
	l0.5,0.9l0.6,0.8l0,0l0.7,0.8l0.8,0.7l0.8,0.6l0.9,0.5l0.9,0.4l1,0.3l1,0.2l1,0.1h0.8h0.2l1-0.1l1-0.2l1-0.3l0.9-0.4l0.9-0.5
	l0.8-0.6l0.8-0.7l0.7-0.8l0,0l0.6-0.8l0.5-0.9l0.4-0.9l0.3-1l0.2-1l0.1-1v-1l-0.4-4.8l-2-23.2l-1-11.6l-0.6-6.5l-0.1-0.6l-0.1-0.6
	l-0.2-0.6l-0.3-0.5l-0.3-0.5l-0.4-0.5l-0.4-0.4l-0.5-0.4l-0.5-0.3l-0.5-0.3l-0.6-0.2l-0.6-0.2l-0.5-0.1h-0.1h-0.3h-0.3H240.2
	L240.2,2355.2 M177.8,2403.2l-0.4-0.1h-0.2h-0.3l-0.6,0.1l-0.6,0.2l-0.5,0.3l-0.4,0.4l-0.3,0.5l-0.2,0.6l-0.1,0.6v0.6l0.2,0.6
	l0.2,0.5v0.1l0.2,0.2l0.4,0.4l0.5,0.3l0.6,0.2l0.6,0.1l0.6-0.1l0.6-0.2l0.5-0.3l0.4-0.4l0.2-0.3l0.1-0.2l0.2-0.6l0.1-0.6v-0.6
	l-0.2-0.6l-0.3-0.5l-0.4-0.5l-0.5-0.4L177.8,2403.2 M456.1,2044.1h-0.2l-2.7,1.4l-0.4,0.2l-0.1,0.1l0,0l-0.1,0.2v0.4v0.5l0.1,0.6
	l0.1,0.5v0.2l0.1,0.7l0.2,0.8l0.2,0.8l0.2,0.7l0.1,0.2l3.8,11.4l1.4,4.1l0.3,0.8l0.3,0.8l0.3,0.7l0.3,0.7l0.3,0.6l0.3,0.5l0.3,0.4
	l0.3,0.2l0.2,0.1h0.2l2.8-1.4l0.4-0.2l0.1-0.2l0.1-0.3v-0.4v-0.5l-0.1-0.6l-0.1-0.7l-0.1-0.7l-0.2-0.8l-0.2-0.6l-0.1-0.2l-0.3-0.8
	l-0.5-1.5l-3.9-11.6l-0.8-2.5l-0.3-0.8l-0.3-0.8l-0.3-0.7l-0.3-0.6l-0.2-0.3l-0.1-0.2l-0.3-0.5l-0.3-0.4l-0.3-0.2L456.1,2044.1
	 M429.8,2043.7h-0.4h-6.5h-0.1l-0.1,0.1l-0.1,0.2l-0.1,0.2l-0.1,0.3l-0.1,0.3l-0.1,0.4l-0.1,0.4v0.4v0.4v4.8v11.6v6v0.4v0.4l0.1,0.4
	l0.1,0.4l0.1,0.3l0.1,0.3l0.1,0.2l0.1,0.2l0.1,0.1h0.1h6.5h0.4h0.1l0.1-0.1l0.1-0.2l0.1-0.2l0.1-0.3l0.1-0.3l0.1-0.4l0.1-0.4v-0.4
	v-0.4v-6v-11.6v-4.8v-0.4v-0.4l-0.1-0.4l-0.1-0.4l-0.1-0.3l-0.1-0.3l-0.1-0.2l-0.1-0.2l-0.1-0.1L429.8,2043.7 M485.6,2104.5l0.2-0.5
	l0.1-0.4v-0.1l-0.1-0.5l-0.2-0.5l-0.3-0.4l-0.4-0.3l-0.4-0.1l-0.4,0.1l-0.4,0.3l-0.3,0.4l-0.2,0.5l-0.1,0.5v0.1v0.4l0.2,0.5l0.3,0.4
	l0.4,0.2l0.4,0.1l0.4-0.1l0.4-0.2L485.6,2104.5 M464.9,2138.1v-0.5v-0.4l-0.1-0.3l-0.1-0.1l-0.4-0.2l-2.8-1.4h-0.2l-0.2,0.1
	l-0.3,0.2l-0.3,0.4l-0.3,0.5l-0.3,0.6l-0.3,0.7l-0.3,0.7l-0.3,0.8l-0.3,0.8l-1.5,4.4l-3.7,11.2l-0.1,0.5l-0.1,0.4l-0.2,0.8l-0.2,0.8
	l-0.1,0.7v0.1l-0.1,0.5l-0.1,0.6v0.5v0.4l0.1,0.2l0,0l0.1,0.1l1,0.5l2.1,1.1h0.2l0.2-0.1l0.3-0.2l0.3-0.4l0.3-0.4v-0.1l0.3-0.6
	l0.3-0.7l0.3-0.7l0.3-0.8l0.3-0.8l0.7-2.2l3.9-11.6l0.6-1.7l0.3-0.8l0.1-0.2l0.2-0.6l0.2-0.8l0.1-0.7l0.1-0.7V2138.1 M406.2,2102
	L406.2,2102l-0.4-0.3l-0.4-0.1l-0.4,0.1l-0.4,0.3l-0.3,0.4l-0.2,0.5l-0.1,0.5l0.1,0.5l0.2,0.5l0.3,0.4l0.4,0.2l0.4,0.1l0.4-0.1
	l0.4-0.2l0,0l0.3-0.4l0.2-0.5l0.1-0.5l-0.1-0.5l-0.2-0.5L406.2,2102 M412.6,2121.5H441h23.2h11.6h0.6v-0.4v-11.6v-5.8l0,0v-5.8v-9.8
	h-12.2H441h-23.2h-5.2v9.8v11.6L412.6,2121.5 M367,2099.8l-0.2-0.5l-0.3-0.4l-0.4-0.3l-0.4-0.1h-0.1l-0.3,0.1l-0.4,0.3l-0.3,0.4
	l-0.2,0.5l-0.1,0.5l0.1,0.5l0.2,0.5l0.3,0.4l0.4,0.2l0.3,0.1h0.1l0.4-0.1l0.4-0.2l0.3-0.4l0.2-0.5l0.1-0.5L367,2099.8 M429.8,2135.1
	h-0.3H423h-0.1l-0.1,0.1l-0.1,0.2l-0.1,0.2l-0.1,0.3l-0.1,0.3l-0.1,0.4l-0.1,0.4v0.4v0.4v6.3v11.6v4.6v0.4v0.4l0.1,0.4l0.1,0.4
	l0.1,0.3l0.1,0.3l0.1,0.2l0.1,0.2l0.1,0.1h0.1h6.5h0.3h0.1l0.1-0.1l0.1-0.2l0.1-0.2l0.1-0.3l0.1-0.3l0.1-0.4l0.1-0.4v-0.4v-0.4v-4.6
	v-11.6v-6.3v-0.4v-0.4l-0.1-0.4l-0.1-0.4l-0.1-0.3l-0.1-0.3l-0.1-0.2l-0.1-0.2l-0.1-0.1H429.8 M337.6,2041.1l-0.2-0.1h-0.2l-0.6,0.3
	l-2.5,1.3l-0.1,0.1l-0.1,0.3v0.4v0.5l0.1,0.6l0.1,0.7l0.1,0.7l0.2,0.8l0.2,0.8l0.3,0.8l1,3l3.9,11.6l0.3,1l0.3,0.8l0.3,0.8l0.3,0.7
	l0.3,0.7l0.3,0.6l0.3,0.5l0.3,0.4l0.3,0.2l0,0l0.2,0.1h0.2l3.1-1.6l0.1-0.2l0.1-0.3v-0.4v-0.5l-0.1-0.6l-0.1-0.7l-0.1-0.7l-0.2-0.8
	l0,0l-0.2-0.8l-0.3-0.8l-3.3-9.9l-1.9-5.6l-0.3-0.8l-0.3-0.8l-0.3-0.7l-0.3-0.6l-0.3-0.6l-0.3-0.5l-0.3-0.4L337.6,2041.1
	 M311.8,2043.4v-0.4v-0.4l-0.1-0.4l-0.1-0.4l-0.1-0.3l-0.1-0.3l-0.1-0.2l-0.1-0.2l-0.1-0.1H311h-3.5h-3.3h-0.1l-0.1,0.1l-0.1,0.2
	l-0.1,0.2l-0.1,0.3l-0.1,0.3l-0.1,0.4l-0.1,0.4v0.4v0.4v2.2v5.8v11.6v2.9v0.4v0.4l0.1,0.4l0.1,0.4l0.1,0.3l0.1,0.3l0.1,0.2l0.1,0.2
	l0.1,0.1h0.1h3.3h3.5h0.1l0.1-0.1l0.1-0.2l0.1-0.2l0.1-0.3l0.1-0.3l0.1-0.4l0.1-0.4v-0.4v-0.4v-2.9v-11.6v-5.8V2043.4 M190.1,2012.9
	l0.4,1l0.4,0.8l0.1,0.1l0.6,0.9l0.7,0.8l0.8,0.7l0.9,0.6l0.9,0.5l1,0.4l1,0.3l1.1,0.2l1.1,0.1h1.1l1.1-0.1l1-0.3l0.1-0.1l0.9-0.3
	l1-0.5l0.9-0.6l0.8-0.7l0.8-0.8l0.7-0.8l0.6-0.9l0.5-1l0.3-0.7l0.1-0.3l0.3-1l0.1-1.1v-1.1l-0.1-1.1l-0.2-1.1l-0.3-1l-0.4-1
	l-0.5-0.9l-0.6-0.9l-0.7-0.8l-0.8-0.7l-0.9-0.6l-0.3-0.2l-0.6-0.3l-0.8-0.4l-0.1-0.1l-1-0.3l-1.1-0.2l-1.1-0.1h-1.1l-1.1,0.1l-1,0.3
	l-1,0.4l-0.6,0.3l-0.3,0.2l-0.9,0.6l-0.8,0.7l-0.8,0.8l-0.7,0.8l-0.1,0.1l-0.5,0.8l-0.5,1l-0.4,1l-0.3,1l-0.1,1.1v1.1l0.1,1.1
	l0.2,1.1l0.1,0.3L190.1,2012.9 M311,2132h-6.8h-0.1l-0.1,0.1l-0.1,0.2l-0.1,0.2v0.1l-0.1,0.2l-0.1,0.3l-0.1,0.4l-0.1,0.4v0.4v0.4
	v9.5v11.6v1.4v0.4v0.4l0.1,0.4l0.1,0.4l0.1,0.3l0.1,0.3l0.1,0.2l0.1,0.2l0.1,0.1h0.1h3.3h3.5h0.1l0.1-0.1l0.1-0.2l0.1-0.2l0.1-0.3
	l0.1-0.3l0.1-0.4l0.1-0.4v-0.4v-0.4v-1.4v-11.6v-9.5v-0.4v-0.4l-0.1-0.4l-0.1-0.4l-0.1-0.3l-0.1-0.2v-0.1l-0.1-0.2l-0.1-0.2
	l-0.1-0.1H311 M285.2,2099.8l-0.1,0.5v0.4v0.2l0.2,0.5l0.3,0.4l0.4,0.2l0.4,0.1l0.4-0.1l0.4-0.2l0.3-0.4l0.2-0.5v-0.2v-0.4l-0.1-0.5
	l-0.2-0.5l-0.3-0.4l-0.4-0.3l-0.4-0.1l-0.4,0.1l-0.4,0.3l-0.3,0.4V2099.8 M293.9,2118.3h7.8h23.2h23.2h9.5v-8.9v-11.6v-11.6v-1.3
	h-9.5h-23.2h-23.2h-7.8v1.3v11.6v11.6V2118.3 M345.8,2133.6l-2-1l-1.2-0.6h-0.2l-0.2,0.1l-0.3,0.2l-0.2,0.3l-0.1,0.1l-0.3,0.5
	l-0.3,0.6l-0.3,0.7l-0.3,0.7l-0.3,0.8l-0.3,0.8l-0.6,1.8l-1.9,5.8l-0.9,2.6l-1.8,5.5l-0.3,0.8l-0.2,0.8l-0.2,0.8l-0.1,0.7l-0.1,0.4
	v0.3l-0.1,0.6v0.5v0.4l0.1,0.3l0.1,0.1l2.5,1.3l0.6,0.3h0.2l0.2-0.1l0.3-0.2l0.3-0.4l0.3-0.5l0.3-0.6l0.3-0.7l0.3-0.7l0.3-0.7v-0.1
	l0.3-0.8l3.6-10.7l1.6-4.9l0.3-0.8v-0.1l0.2-0.7l0.2-0.8l0.1-0.7l0.1-0.7l0.1-0.6v-0.5v-0.4l-0.1-0.3V2133.6 M190.4,2240.1l-0.1,0.2
	l-0.2,0.3l-0.2,0.6l-0.1,0.6l0.1,0.6l0.2,0.6l0.1,0.1l0.3,0.4l0.4,0.4l0.5,0.3l0.6,0.2h0.3h0.3h0.3h0.1h0.1l0.5-0.1l0.6-0.2l0.5-0.4
	l0.4-0.5l0.3-0.5l0.2-0.6l0.1-0.6l-0.1-0.6l-0.2-0.6l-0.3-0.5l-0.4-0.4l-0.5-0.3l-0.6-0.2h-0.2l-0.4-0.1h-0.6l-0.6,0.2l-0.5,0.3
	l-0.5,0.4L190.4,2240.1 M853.9,2406.4L853.9,2406.4l-0.6-0.1l-0.6,0.1l-0.6,0.2l-0.3,0.2l-0.2,0.1l-0.4,0.4l-0.3,0.5l-0.2,0.6
	l-0.1,0.6v0.6l0.2,0.6l0.3,0.5l0.4,0.5l0.5,0.4l0.6,0.3l0.6,0.1h0.3l0.5-0.1h0.1l0.6-0.2l0.5-0.3l0.4-0.4l0.3-0.5l0.2-0.6l0.1-0.6
	v-0.6l-0.2-0.6l-0.3-0.5l-0.2-0.2l-0.4-0.4l-0.2-0.1l-0.3-0.2L853.9,2406.4 M758.2,2414.2l-0.1,0.6l-0.1,0.4l-0.1,1v1l0.8,9.2
	l2,23.2l1,11.6l0.2,2.2l0.1,0.6l0.1,0.6l0.2,0.6l0.3,0.5l0.3,0.5l0.4,0.5l0.4,0.4l0.1,0.1l0.5,0.4l0.5,0.3l0.5,0.3l0.6,0.2l0.6,0.2
	l0.6,0.1h0.6h0.5h0.1l0.6-0.1l0.6-0.2l0.6-0.2l0.5-0.3l0.5-0.3l0.5-0.4l0.4-0.4l0.4-0.5l0.3-0.5l0.3-0.5l0.2-0.6l0.1-0.6l0.1-0.6
	l0.2-2.2l1-11.6l2-23.2l0.8-9.2v-1l-0.1-1l-0.1-0.4l-0.1-0.6l-0.3-1l-0.4-0.9l-0.5-0.9l-0.6-0.8l-0.7-0.8l-0.8-0.7l-0.8-0.6
	l-0.9-0.5l-0.9-0.4l-1-0.3l-1-0.2l-1-0.1l0,0h-1l-1,0.1l-1,0.2l-1,0.3l-0.9,0.4l-0.9,0.5l-0.8,0.6l-0.8,0.7l-0.7,0.8l-0.6,0.8
	l-0.5,0.9l-0.4,0.9L758.2,2414.2 M853.9,2517.8L853.9,2517.8l-0.6-0.1l-0.6,0.1l-0.6,0.2l-0.5,0.3l-0.4,0.4l-0.3,0.5l-0.2,0.6
	l-0.1,0.6v0.6l0.2,0.6l0.3,0.5l0.4,0.5l0.4,0.3l0.1,0.1l0.6,0.3l0.6,0.1h0.3l0.5-0.1h0.1l0.6-0.2l0.3-0.2l0.2-0.1l0.4-0.4l0.3-0.5
	l0.2-0.6l0.1-0.6v-0.6l-0.2-0.6l-0.3-0.5l-0.2-0.2l-0.4-0.4l-0.5-0.3L853.9,2517.8 M761.6,2484.5l-1,11.6l-2,23.2l-0.7,7.6v1l0.1,1
	l0.2,1l0.3,0.9v0.1l0.4,0.9l0.5,0.9l0.6,0.8l0.7,0.8l0.8,0.7l0.8,0.6l0.9,0.5l0.9,0.4l1,0.3l1,0.2l1,0.1h1l0,0l1-0.1l1-0.2l1-0.3
	l0.9-0.4l0.9-0.5l0.8-0.6l0.8-0.7l0.7-0.8l0.6-0.8l0.5-0.9l0.4-0.9v-0.1l0.3-0.9l0.2-1l0.1-1v-1l-0.7-7.6l-2-23.2l-1-11.6l-0.3-3.7
	l-0.1-0.6l-0.1-0.6l-0.2-0.6l-0.3-0.5l-0.3-0.5l-0.4-0.5l-0.4-0.4l-0.5-0.4l-0.5-0.3l-0.5-0.3l-0.6-0.2l-0.6-0.2l-0.6-0.1h-0.1h-0.5
	H767l-0.6,0.1l-0.6,0.2l-0.6,0.2l-0.5,0.3l-0.5,0.3l-0.5,0.4l-0.4,0.4l-0.4,0.5l-0.3,0.5l-0.1,0.2l-0.2,0.4l-0.2,0.6l-0.1,0.6
	l-0.1,0.6L761.6,2484.5 M589.6,2493.1l-0.6-0.2l-0.6-0.1h-1.9l-11.6,0.1l-5.4,0.1h-0.3l-0.6,0.1l-0.5,0.2l-0.5,0.4l-0.4,0.4
	l-0.3,0.5l-0.2,0.6l-0.1,0.6l0.1,7.7l0.1,11.6l0.1,6v0.3l0.1,0.6l0.3,0.6l0.4,0.5l0.5,0.4l0.5,0.3l0.6,0.2h0.6l0.6-0.1l0.6-0.2
	l0.5-0.4l0.4-0.5l3.1-4.2l2.6-3.5l8.5-11.7l0.3-0.4l4.1-5.6l0.2-0.3l0.2-0.5l0.1-0.6v-0.6l-0.1-0.6l-0.2-0.5l-0.4-0.5l-0.4-0.4
	L589.6,2493.1 M940.3,2085.2h-11.6h-23.2h-23.2h-1.9v1v11.6v5.8v5.8v9.2h1.9h23.2h23.2h11.6h3.8v-9.2v-11.6v-11.6v-1H940.3
	 M812.6,2085.2h-23.2h-23.2H756v1v11.6v11.6v9.2h10.2h0.4h22.8h23.2h7.1v-9.2v-11.6v-11.6v-1H812.6z M364.3,1776.8l1.2,0.8l1.2,0.8
	l2.2,1.9l1.6,1.7l0.4,0.4l1.8,2.4l1.5,2.5l1.2,2.7l0.9,2.8l0.6,2.9l0.3,2.9v2.2v0.8l-0.2,1.7l-0.1,1.2l-0.7,2.9l-1,2.8l-1.3,2.7
	l-3.6,11.5l-0.2,0.5l-2.5,12.3l-1,10.1l-0.2,2.4v9.2v3.4l0.9,8.2l0.5,4.3l2.7,12.3l2.1,6.6l1.8,5.4l1.2,2.7l0.9,2.8l0.4,2.1l0.1,0.7
	l0.3,2.9v2.9l-0.4,2.9l-0.2,0.9l-0.5,1.9l-1,2.7l-1.2,2.6l-1.5,2.5l-1.8,2.3l-0.2,0.2l-1.9,1.9l-2.2,1.9l-2.4,1.6l-2.6,1.3l-2.6,1
	l-0.1,0.1l-2.8,0.8l-2.9,0.5l-2.9,0.2l-2.9-0.2l0,0l-2.9-0.5l-2.8-0.8l-2.7-1.1l-2.6-1.3l-2.4-1.6l-2.2-1.9l-2-2.1l-0.3-0.4
	l-1.4-1.9l-1.5-2.5l-1.2-2.6l-1-2.7l-0.2-0.6l-0.3-1.3l-0.2-0.9l-0.4-2.9v-2.9l0.3-2.9l0.4-2l0.2-0.8l0.1-0.3l0.8-2.5l1.2-2.7
	l1.8-5.4l2.1-6.6l2.7-12.3l0.5-4.3l0.9-8.2v-3.4v-9.2l-0.2-2.4l-1-10.1l-2.5-12.3l-0.2-0.8l-3.6-11.2l-1.3-2.7l-1-2.8l-0.1-0.5
	l-0.5-2.4l-0.3-2.9v-0.8v-2.2l0.3-2.9l0.6-2.9l0,0l0.9-2.8l0.4-0.8l0.8-1.9l1.5-2.5l1.8-2.4l2-2.1l2.2-1.9l1.2-0.8l1.2-0.8l2.6-1.4
	l2.7-1.1l2.8-0.8l2.9-0.5l0,0l2.9-0.2l2.9,0.2l2.9,0.5l2.8,0.8l2.7,1.1L364.3,1776.8 M441,1778.2l0.7,0.6l1.5,1.3l2,2.1l1.8,2.3
	l1.5,2.5l1.2,2.7l0.2,0.7l0.7,2.1l0.6,2.9l0.3,2.9v2.9l-0.1,0.8l-0.2,2.1l-0.6,2.9l-4.3,11.5l-1.8,6.7l-1.4,5.2l-1.9,12.2l-0.3,5.8
	l-0.1,1.7l-0.3,4.8l0.3,5.3l0.3,7l0.7,4.4l1.2,7.8l3.1,11.9l1.3,3.5l3,8l0.7,2.8l0.1,0.8l0.3,2.1l0.1,2.9l-0.2,2.9l-0.5,2.9
	l-0.2,0.8l-0.6,1.9l-1.1,2.7l-1.4,2.5l-1.6,2.4l-1.9,2.2l-2.1,2l-1.1,0.8l-1.3,0.9l-2.5,1.5l-2.6,1.2l-2.8,0.9l-2.5,0.5l-0.4,0.1
	l-2.9,0.3H423l-2.9-0.3l-2.6-0.6l-0.3-0.1l-2.8-0.9l-2.6-1.2l-2.5-1.5l-2.3-1.7l-2.1-2l-0.1-0.1l-1.8-2.1l-1.6-2.4l-1.4-2.5
	l-1.1-2.7l-0.6-1.9l-0.2-0.8l-0.5-2.9l-0.2-2.9l0.1-2.9l0.3-2.1l0.1-0.8l0.7-2.8l3-8l1.3-3.5l3.1-11.9l1.8-12.2l0.6-12.3l-0.3-6.5
	l-0.3-5.8l-1.9-12.2l-1.4-5.2l-1.8-6.7l-4.3-11.5l-0.6-2.9l-0.2-2.1l-0.1-0.8v-2.9l0.3-2.9l0.6-2.9l0.7-2.1l0.2-0.7l1.2-2.7l1.5-2.5
	l1.8-2.3l2-2.1l1.5-1.3l0.7-0.6l2.4-1.6l2.6-1.4l2.7-1.1l1.7-0.5l1.1-0.3l2.9-0.5l2.9-0.2l2.9,0.2l1.8,0.3l1.1,0.2l2.8,0.8l2.7,1.1
	l2.6,1.4L441,1778.2L441,1778.2 M290.2,1768.3l0.5,0.3l2.1,1.1l2.4,1.7l2.2,1.9l2,2.1l1.8,2.4l1.5,2.5l1,2.1l0.3,0.6l0.9,2.8
	l0.6,2.9l0.3,2.9v2.5v0.5l-0.3,2.9l-0.7,2.9l-1,2.8l-1.2,2.5l-0.1,0.1l-3.8,12l-2.3,11.1l-0.3,1.2l-1.3,12.5v9.4v3.1l1.4,12.5
	l1.6,7.6v0.2l1,4.6l3.9,12l1.2,2.7l0.9,2.8l0.2,1.1l0.4,1.8l0.3,2.9v2.9l-0.4,2.9l-0.3,1.2l-0.4,1.7l-1,2.7l-1.2,2.6l-1.5,2.5
	l-1.6,2.1l-0.1,0.2l-2,2.1l-2.2,1.9l-2.4,1.6l-1.9,1l-0.7,0.3l-2.7,1.1l-2.8,0.8l-2.9,0.5l-2.6,0.1h-0.3l-2.9-0.2l-2.9-0.5l-2.8-0.8
	l-2.7-1.1h-0.1l-2.5-1.3l-2.4-1.6l-2.2-1.9l-2-2.1l-0.1-0.2l-1.6-2.1l-1.5-2.5l-1.2-2.6l-1-2.7l-0.4-1.7l-0.3-1.2l-0.4-2.9v-2.9
	l0.3-2.9l0.4-1.8l0.2-1.1l0.9-2.8l1.2-2.7l3.9-12l1-4.8l1.6-7.6l1.4-12.5v-3.1v-9.4l-1.3-12.5l-0.3-1.2l-2.3-11.1l-3.8-12l-0.1-0.1
	l-1.2-2.5l-1-2.8l-0.7-2.9l-0.3-2.9v-0.5v-2.5l0.3-2.9l0.6-2.9l0.9-2.8l0.3-0.6l1-2.1l1.5-2.5l1.8-2.4l2-2.1l2.2-1.9l2.4-1.7
	l2.6-1.4h0.1l2.6-1.1l2.8-0.8l2.9-0.5l2.9-0.2h0.3l2.6,0.1l2.9,0.5l2.8,0.8L290.2,1768.3 M239.9,1781.4l0.3,1l0.6,1.8l0.6,2.9
	l0.3,2.9v2.9l-0.1,1.1l-0.2,1.8l-0.6,2.9l-2.6,6.9l-1.7,4.6l-3.1,11.9l-1,6.7l-0.9,5.5l-0.7,12.3l0.6,12.3l1.8,12.2l1.1,4.1l2,7.8
	l4.3,11.6l0.7,2.8l0.1,1l0.3,1.8l0.1,2.9l-0.2,2.9l-0.5,2.9l-0.3,1.1l-0.5,1.7l-1.1,2.7l-1.4,2.5l-1.6,2.4l-1.9,2.2l-0.2,0.1l-2,1.8
	l-2.3,1.7l-2.5,1.5l-2.6,1.2l-2.8,0.9l-0.9,0.2l-1.9,0.4l-2.9,0.3h-2.9l-2.9-0.3l-1-0.2l-1.8-0.4l-2.8-0.9l-2.6-1.2l-2.5-1.5
	l-1.9-1.4l-0.4-0.3l-2-1.8l-0.2-0.1l-1.9-2.2l-1.6-2.4l-1.4-2.5l-1.1-2.7l-0.5-1.7l-0.3-1.1l-0.5-2.9l-0.2-2.9l0.1-2.9l0.3-1.8
	l0.1-1l0.7-2.8l4.3-11.6l2-7.8l1.1-4.1l1.5-10.3l0.3-1.9l0.6-12.3l-0.7-12.3l-0.2-1.4l-0.6-4.1l-1-6.7l-3.1-11.9l-1.7-4.6l-2.6-6.9
	l-0.6-2.9l-0.3-2.9v-2.9l0.3-2.9l0.6-2.9l0.6-1.8l0.3-1l1.2-2.7l1.5-2.5l1.8-2.3l2-2.1l1.7-1.4l0.6-0.5l2.4-1.6l2.6-1.4l2.7-1.1
	l2.8-0.8l0.5-0.1l2.4-0.4l2.9-0.2l2.9,0.2l2.9,0.5l0.5,0.1l2.4,0.7l2.7,1.1l2.6,1.4l2.4,1.6l1.1,0.9l1.2,1l2,2.1l1.8,2.3l1.5,2.5
	L239.9,1781.4 M347.7,1790.7l-0.4,0.1l-0.6,0.2l-0.9,0.4l-0.9,0.5l-0.8,0.6l-0.8,0.7l-0.7,0.8l-0.6,0.8l-0.5,0.9l-0.4,0.9l-0.3,1
	l-0.2,1l-0.1,1v1v0.1l2,23.2l2,22.9l0.1,0.4v0.2l0.1,0.6l0.2,0.6l0.3,0.5l0.3,0.5l0.4,0.5l0.4,0.4l0.5,0.4l0.5,0.3h0.1l0.5,0.3
	l0.6,0.2l0.6,0.2l0.6,0.1h0.6h0.6l0.6-0.1l0.6-0.2l0.6-0.2l0.5-0.3l0,0l0.5-0.3l0.5-0.4l0.4-0.4l0.4-0.5l0.3-0.5l0.3-0.5l0.2-0.6
	l0.1-0.6v-0.2l0.1-0.4l3.9-46.1v-0.1v-1l-0.1-1l-0.2-1l-0.3-1l-0.4-0.9l0,0l-0.5-0.9l-0.6-0.8l-0.7-0.8l-0.8-0.7l-0.8-0.6l-0.9-0.5
	l-0.9-0.4l-1-0.3l-1-0.2l-1-0.1h-1l-1,0.1L347.7,1790.7 M424,1797l-0.5,0.2h-0.1l-0.5,0.3l-0.4,0.4l-0.3,0.5l-0.2,0.6l-0.1,0.6v0.6
	l0.2,0.6l0.3,0.5l0.2,0.2l0.4,0.4h0.1l0.5,0.3l0.6,0.2l0.6,0.1l0.6-0.1l0.6-0.2l0.5-0.3h0.1l0.4-0.4l0.3-0.5l0.2-0.6l0.1-0.6v-0.6
	l-0.2-0.6l-0.3-0.5l-0.4-0.5l-0.5-0.4l-0.6-0.3l-0.6-0.1h-0.3L424,1797 M347.4,1859.9L347.4,1859.9l-0.5,0.3l-0.5,0.4l-0.4,0.4
	l-0.4,0.5l-0.3,0.5l-0.3,0.5l-0.2,0.6l-0.1,0.6l-0.1,0.6l-0.5,6.2l-2,23.2l-1,11.6l-0.4,5.1v1l0.1,1l0.2,1l0.3,1l0.4,0.9l0.5,0.9
	l0.4,0.6l0.2,0.3l0.7,0.8l0.8,0.7l0.8,0.6l0.9,0.5l0.9,0.4l0.6,0.2l0.4,0.1l1,0.2l1,0.1h1l1-0.1l1-0.2l1-0.3l0.9-0.4l0.9-0.5
	l0.8-0.6l0.8-0.7l0.7-0.8l0.2-0.3l0.4-0.6l0.5-0.9l0,0l0.4-0.9l0.3-1l0.2-1l0.1-1v-1l-0.4-5.1l-1-11.6l-2-23.2l-0.5-5.8v-0.4
	l-0.1-0.6l-0.1-0.6l-0.2-0.6l-0.3-0.5l-0.3-0.5l-0.4-0.5l-0.4-0.4l-0.5-0.4l-0.5-0.3l0,0l-0.5-0.3l-0.6-0.2l-0.6-0.2l-0.6-0.1h-0.6
	h-0.6l-0.6,0.1l-0.6,0.2l-0.6,0.2L347.4,1859.9 M425,1908.3h-0.3l-0.6,0.1l-0.5,0.2h-0.1l-0.5,0.3l-0.4,0.4l-0.3,0.5l-0.2,0.6
	l-0.1,0.6v0.6l0.2,0.6l0.1,0.2l0.2,0.4l0.2,0.2l0.4,0.4l0.5,0.3l0.6,0.2l0.6,0.1l0.6-0.1l0.6-0.2l0.5-0.3l0.4-0.4l0.3-0.5v-0.1
	l0.2-0.5l0.1-0.6v-0.6l-0.2-0.6l-0.3-0.5l-0.4-0.5l-0.5-0.4l-0.6-0.3L425,1908.3 M279.4,1783.2h-0.2h-0.8l-1,0.1l-1,0.2l-1,0.3
	l-0.9,0.4l-0.9,0.5l-0.8,0.6l-0.8,0.7l-0.7,0.8l-0.6,0.8l-0.2,0.4l-0.3,0.5l-0.4,0.9l-0.3,1l-0.2,1l-0.1,1v1v0.3l1,11.6l2,23.2
	l0.9,11l0.1,0.6l0,0l0.1,0.5l0.2,0.6l0.3,0.5l0.3,0.5l0.4,0.5l0.4,0.4l0.5,0.4l0.5,0.3l0.5,0.3l0.6,0.2l0.6,0.2l0.6,0.1h0.6h0.3h0.3
	l0.6-0.1l0.6-0.2l0.6-0.2l0.5-0.3l0.5-0.3l0.5-0.4l0.4-0.4l0.4-0.5l0.3-0.5l0.3-0.5l0.2-0.6l0.1-0.5l0,0l0.1-0.6l0.9-11l2-23.2
	l1-11.6v-0.3v-1l-0.1-1l-0.2-1l-0.3-1l-0.4-0.9l-0.3-0.5l-0.2-0.4l-0.6-0.8l-0.7-0.8l-0.8-0.7l-0.8-0.6l-0.9-0.5l-0.9-0.4l-1-0.3
	l-1-0.2L279.4,1783.2 M216,1794l0.5-0.3l0.4-0.4l0.3-0.5l0.2-0.6l0.1-0.6v-0.6l-0.2-0.6l-0.3-0.5l-0.4-0.5l-0.5-0.4l-0.6-0.3
	l-0.4-0.1h-0.2h-0.3l-0.6,0.1l-0.6,0.2l-0.5,0.3l-0.4,0.4l-0.3,0.5l-0.2,0.6l-0.1,0.6v0.6l0.2,0.6l0.3,0.5l0.2,0.2l0.4,0.4l0.5,0.3
	l0,0l0.6,0.2l0.6,0.1l0.6-0.1L216,1794L216,1794 M278.1,1852.1l-0.5,0.1l-0.6,0.2l-0.6,0.2l-0.5,0.3l-0.5,0.3l-0.5,0.4l-0.4,0.4
	l-0.4,0.5l-0.3,0.5l-0.3,0.5l-0.2,0.6l-0.1,0.6l-0.1,0.6l-0.6,6.5l-1,11.6l-2,23.2l-0.4,4.8v1l0.1,1l0.2,1l0.3,1l0.4,0.9l0.5,0.9
	l0.6,0.8l0,0l0.7,0.8l0.8,0.7l0.8,0.6l0.9,0.5l0.9,0.4l1,0.3l1,0.2l1,0.1h0.8h0.2l1-0.1l1-0.2l1-0.3l0.9-0.4l0.9-0.5l0.8-0.6
	l0.8-0.7l0.7-0.8l0,0l0.6-0.8l0.5-0.9l0.4-0.9l0.3-1l0.2-1l0.1-1v-1l-0.4-4.8l-2-23.2l-1-11.6l-0.6-6.5l-0.1-0.6l-0.1-0.6l-0.2-0.6
	l-0.3-0.5l-0.3-0.5l-0.4-0.5l-0.4-0.4l-0.5-0.4l-0.5-0.3l-0.5-0.3l-0.6-0.2l-0.6-0.2l-0.5-0.1h-0.1h-0.3h-0.3H278.1L278.1,1852.1
	 M215.7,1900.1l-0.4-0.1h-0.2h-0.3l-0.6,0.1l-0.6,0.2l-0.5,0.3l-0.4,0.4l-0.3,0.5l-0.2,0.6l-0.1,0.6v0.6l0.2,0.6l0.2,0.5v0.1
	l0.2,0.2l0.4,0.4l0.5,0.3l0.6,0.2l0.6,0.1l0.6-0.1l0.6-0.2l0.5-0.3l0.4-0.4l0.2-0.3l0.1-0.2l0.2-0.6l0.1-0.6v-0.6l-0.2-0.6l-0.3-0.5
	l-0.4-0.5l-0.5-0.4L215.7,1900.1 M1000.2,1764.2l0.1,0.4l1.2,3.3l0.5,2l0.5,2.1l0.4,2.9l0.1,1.3v0.7v1.2v9.7v23.2v13v8.1v2.2v23.2
	v0.1v46.3v15.5l-0.2,2.9l-0.5,2.8l-0.4,1.5l-0.1,0.5l-0.2,0.7l-1.1,2.7l-1.3,2.5l-1.6,2.4l-1.9,2.2l-1.2,1.2l-0.9,0.8l-2.3,1.7
	l-2.5,1.5l-2.6,1.2l-2.7,0.9l-2.8,0.6l-2.1,0.2l-0.7,0.1H975l-2.8-0.3l-2.8-0.6l-2.4-0.8l-0.3-0.1l-2.6-1.2l-2.5-1.5l-2.3-1.7
	l-0.9-0.8l-1.2-1.2l-1.9-2.2l0,0l-1.6-2.4l-1.3-2.5l-1.1-2.7l-0.2-0.7l-0.6-2l-0.5-2.8l-0.2-2.9v-15.5v-46.3v-0.1v-10.7l5.4-7.1
	l4.2-5.5l5.7-7.5l7.5-11l2.6-4.7l0.1-0.1l1.2-2.8l0.7-2.2l0.4-1.7l0.2-1.4v-1.1l-0.1-1l-0.1-0.9l-0.1-0.4l-0.1-0.5l-0.3-1l-0.5-1
	l-0.6-1.1l-1.1-1.5l-1.1-1.3l-5.3-5.3l-1-1l-1.9-2.2l-1.6-2.3l-1.2-2.2l-0.9-2.2l-0.5-1.7l-0.1-0.5l-0.5-2.3l-0.2-2.3v-2.3l0.2-2.4
	l0.4-1.8l0.2-0.8l0.8-2.5l0.9-2.1l1-1.7l1-1.4l1-1.2l1.2-1.1l1-0.8l0.2-0.2l1.4-0.9l1.6-0.8l1.7-0.6l1.9-0.5l2.2-0.4l1.3-0.1
	l1.1-0.1l2.5,0.1l2,0.3l1.9,0.4l1.8,0.6l1.6,0.7l1.7,0.9l0.7,0.5l0.8,0.6l1.4,1.3l1.3,1.5l1.3,1.7l1.6,2.6L1000.2,1764.2
	 M907,1745.6l0.6,0.5l0.5,0.3l0.4,0.3l1.4,1.3l1.3,1.5l1.3,1.7l1.6,2.6l1.7,3.5l0.2,0.7l1.1,3l1,4.1l0.4,2.9l0.1,1.6v0.4v1.2v21.6
	v19.5v3.7v23.2v46.4v23.2v3.6l-0.2,2.9l-0.5,2.8l-0.6,2.3l-0.1,0.5l-1.1,2.7l-1.3,2.5l-1.6,2.4l-1.9,2.2l-1.5,1.4l-0.6,0.5l-1.7,1.3
	l-0.5,0.4l-2.5,1.5l-2.6,1.2l-2.7,0.9l-2.8,0.6l-0.5,0.1l-2.3,0.3h-2.9l-2.8-0.3l-2.8-0.6l-0.8-0.3l-1.9-0.6l-2.6-1.2l-2.5-1.5
	l-2.3-1.7l-0.6-0.5l-1.5-1.4l-1.9-2.2l-1.6-2.4l-1.3-2.5l-1.1-2.7l-0.1-0.5l-0.6-2.3l-0.5-2.8l-0.2-2.9v-3.6v-23.2v-35v-10.8
	l0.5-0.7l14.8-19.4l2.6-3.8l0.7-1l4.2-6.2l2.5-4.5l0.2-0.4l1.2-2.8l0.7-2.2l0.4-1.7l0.2-1.4v-1.1l-0.1-1l-0.1-0.9v-0.2l-0.2-0.8
	l-0.3-1l-0.5-1l-0.6-1.1l-1.1-1.5l-1.1-1.3l-5-5l-0.3-0.3l-1-1l-1.9-2.2l-1.6-2.3l-1.2-2.2l-0.9-2.2l-0.4-1.4l-0.2-0.7l-0.5-2.3
	l-0.2-2.3v-2.3l0.2-2.4l0.3-1.5l0.2-1l0.8-2.5l0.9-2.1l1-1.7l1-1.4l1-1.2l1.2-1.1l0.7-0.5l0.6-0.4l0.1-0.1l1.2-0.8l1.6-0.8l1.7-0.6
	l1.9-0.5l2.2-0.4l2.4-0.2h0.5l2,0.1l2,0.3l1.9,0.4l1.8,0.6l1.6,0.7L907,1745.6 M970.3,1921.7v0.6l0.1,0.6l0.2,0.6l0.2,0.6l0.3,0.5
	l0.3,0.5l0.4,0.5l0.4,0.4l0.5,0.4l0.2,0.1l0.4,0.2l0.6,0.3l0.6,0.2l0,0l0.6,0.1l0.6,0.1h0.6l0.6-0.1l0.6-0.1l0,0l0.6-0.2l0.6-0.3
	l0.1-0.1l0.4-0.2l0.5-0.4l0.4-0.4l0.4-0.5l0.3-0.5l0.3-0.5l0.2-0.6l0.2-0.6l0.1-0.6v-0.6h8.7h2.9v-6.1V1904v-46.3h-34.6v46.3v11.6
	v6.1h8.5H970.3L970.3,1921.7 M1163.6,1762.1l0.9,0.8l1.2,1.1l1.9,2.2l1.6,2.4l1.4,2.5l1.1,2.7l0.2,0.7l0.3,0.9l0.4,1.2l0.5,2.9
	l0.2,2.9l-0.1,2.9l-0.4,2.9l-0.5,2.1l-0.2,0.7l-2.5,6.8l-1.8,4.8l-3.1,11.9l-1.8,12.2l-0.6,12.3l0.3,5.2l0.4,7.1l1.9,12.2l3.1,11.9
	l4.3,11.5l0.6,2.9l0.1,0.8l0.2,2.1v2.9l-0.3,2.9l-0.6,2.9l-0.1,0.2l-0.2,0.6l-0.7,2l-1.2,2.7l-1.5,2.5l-1.8,2.3l-2,2.1l0,0l-2.2,1.9
	l-2.4,1.6l-2.6,1.4l-2.7,1.1l-2.8,0.8l-2.9,0.5h-0.2l-2.8,0.2l-2.9-0.2l-2.9-0.5l-2.8-0.8l-2.7-1.1l-2.6-1.4l-2.4-1.6l-2.2-1.9l0,0
	l-1.8-1.9l-0.2-0.2l-1.8-2.3l-1.5-2.5l-1.2-2.7l-0.7-2l-0.3-0.8l-0.6-2.9l-0.3-2.9v-2.9l0.2-2.1l0.1-0.8l0.6-2.9l4.3-11.5l2.1-8
	l1-3.9l1.9-12.2l0.4-7.1l0.3-5.2l-0.6-12.3l-1.8-12.2l-3.1-11.9l-1.8-4.8l-2.5-6.8l-0.7-2.8l-0.4-2.9l-0.1-2.9l0.2-2.9l0.5-2.9
	l0.6-2.1l0.2-0.7l1.1-2.7l1.4-2.5l1.6-2.4l0.9-1.1l1-1.1l1.2-1.1l0.9-0.8l2.3-1.7l2.5-1.5l2.6-1.2l2.8-0.9l2.8-0.6l2.9-0.3h2.9
	l1.3,0.1l1.6,0.2l2.8,0.6l2.8,0.9l2.6,1.2l2.5,1.5L1163.6,1762.1 M1081,1758.8l2.4,1.6l2.2,1.9l0.6,0.6l1.4,1.5l1.8,2.3l1.5,2.5
	l1.2,2.6l1,2.7l0,0l0.7,2.8l0.4,2.9v2.9l-0.3,2.9v0.1l-0.1,0.6l-0.4,2.1l-0.9,2.8l-1.2,2.7l-1.1,3.5l-2.8,8.5l-2.7,12.3l-0.3,2.4
	l-1.1,10.1v1.5v11.1l0.1,0.5l1.2,12l2.3,11.2l0.2,1.1l0.2,0.5l3.6,11.5l1.3,2.7l1,2.8l0.7,2.9l0.1,1.2l0.1,0.6l0.1,1.1v2.9l-0.3,2.9
	l-0.6,2.9l-0.6,1.7l-0.4,1.1l-1.2,2.7l-1.5,2.5l-1.8,2.4l-2,2.1l-1,0.8l-1.3,1.1l-2.4,1.7l-2.6,1.4l-2.7,1.1l-2.8,0.8l-1.6,0.3
	l-1.3,0.2l-2.9,0.2l-2.9-0.2l-2.9-0.5l-1.5-0.4l-1.3-0.4l-2.7-1.1l-2.6-1.4l-2.4-1.7l-1.3-1.1l-1-0.8l-0.3-0.3l-1.7-1.8l-1.8-2.4
	l-1.5-2.5l-1.2-2.7l-0.4-1.1l-0.6-1.7l-0.6-2.9l-0.3-2.9v-2.9l0.1-1.1l0.1-0.6l0.1-1.2l0.7-2.9l1-2.8l1.3-2.7l3.6-11.5l0.2-0.5
	l1-4.8l1.5-7.5l1.2-12l0.1-0.5v-11.1v-1.5l-1.1-10.1l-0.3-2.4l-1.4-6.4l-1.3-5.9l-2.8-8.5l-1.1-3.5l-1.2-2.7l-0.9-2.8l-0.6-2.8
	l-0.3-2.9v-2.9l0.4-2.9l0.7-2.8l0,0l1-2.7l1.2-2.6l1.5-2.5l1.8-2.3l1.5-1.5l0.5-0.6l2.2-1.9l2.4-1.6l2.6-1.3l2.7-1.1l1.2-0.3
	l1.6-0.4l2.9-0.5l2.9-0.2l2.9,0.2l1.3,0.2l1.5,0.2l2.8,0.8l2.7,1.1L1081,1758.8 M634.6,1770.3l0.8,0.7l1.4,1.1l2,2l1.8,2.2l1.6,2.4
	l1.3,2.6l0.6,1.5l0.4,1.2l0.7,2.8l0.4,2.8l0.1,2.9v2l-0.2,11.6l-1,46.4l-0.2,11.6v1l-8.3,10.5l-7.4,9.3l-7.8,10.8l-1.6,2.8l-1.2,2
	l-1.3,2.8l-0.8,2.1l-0.4,1.7l-0.2,1.4l-0.1,1.1v0.5v0.5l0.1,0.9l0.2,1l0.3,1l0.4,1l0.6,1.1l1.1,1.5l1.1,1.3l3.3,3.5l0.5,0.6l2.3,2.4
	l1.8,2.3l1.6,2.3l1.2,2.2l0.8,1.9l0.1,0.2l0.6,2.1l0.4,2.3l0.2,2.3l-0.1,2.3l-0.3,2.3v0.2l-0.6,2.5l-0.8,2.4l-1,2.1l-1,1.7l-1,1.4
	l-1,1.2l0,0l-1.2,1.1l-1.3,0.9l-1.4,0.8l-0.2,0.1l-1.5,0.7l-1.8,0.6l-2,0.5l-2.2,0.3l-2.4,0.1l-1.9-0.1h-0.6l-2-0.3l-1.9-0.5
	l-1.7-0.6l-1.6-0.8l-1.6-1l-1.5-1.1l-0.5-0.5l-0.9-0.8l-1.3-1.5l-1.3-1.8l-1.5-2.7l-1.6-3.5l-0.8-2.3l-0.5-1.4l-0.9-4.1l-0.4-2.9
	l-0.1-1.5v-0.6l0.1-1.2l0,0l0.2-11.6l0.5-23.2l0.2-9.6l0.8-36.8l1-46.4l0.3-13.6l0.2-2.9l0.5-2.8l0.8-2.7l0.5-1.2l0.6-1.5l1.4-2.5
	l1.7-2.3l1.9-2.1l2.1-1.9l0.3-0.2l1.1-0.8l0.9-0.6l2.5-1.4l2.6-1.1l2.7-0.9l1.9-0.4l0.9-0.2l2.8-0.2l2.9,0.1l2.8,0.4l2.2,0.5
	l0.6,0.2l2.7,1l2.6,1.3L634.6,1770.3 M625.7,1789.7v-0.6l-0.1-0.6l-0.1-0.3l-0.1-0.2l-0.2-0.6l-0.3-0.5l-0.3-0.5l-0.4-0.5l-0.4-0.4
	l-0.5-0.4l-0.5-0.3l-0.6-0.3l-0.6-0.2l-0.6-0.1l-0.6-0.1h-0.3h-0.3l-0.6,0.1l-0.6,0.1l-0.6,0.2l-0.6,0.2l-0.5,0.3l-0.5,0.4l-0.5,0.4
	l-0.4,0.5l-0.4,0.5l-0.3,0.5l-0.2,0.6l-0.1,0.2l-0.1,0.3l-0.1,0.6v0.6h-0.1l-11.5-0.2l-0.1,4.2l-0.2,11.6l-1,46.4v1.8l23.1,0.5
	l11.5,0.2v-1.8l1-46.4l0.2-11.6l0.1-4.2l-11.5-0.2L625.7,1789.7L625.7,1789.7 M897.4,1914.8h10.3h1.3v-5.9v-23.2v-35h-1.3h-33.3v35
	v23.2v5.9h10.1h1.5h0.1v0.6l0.1,0.6l0.2,0.6l0.2,0.6l0.3,0.5l0.3,0.5l0.4,0.5l0.4,0.4l0.5,0.4l0.5,0.3l0.6,0.3l0.6,0.2h0.1l0.5,0.1
	l0.6,0.1h0.6l0.6-0.1l0.6-0.1l0.6-0.2l0.6-0.3l0.5-0.3l0.5-0.4l0.4-0.4l0.2-0.3l0.1-0.2l0.3-0.5l0.3-0.5l0.2-0.6l0.2-0.6l0.1-0.6
	L897.4,1914.8 M807.1,1762.4l1.5,0.5l1.2,0.4l2.2,1l0.5,0.2l2.5,1.5l2.3,1.7l2.1,2l1.9,2.2l1.6,2.4l0.1,0.2l0.6,1l0.7,1.3l1.1,2.7
	l0.8,2.8l0.5,2.9l0.1,1l0.1,1.9l-0.1,2.9l-0.4,2.9l-0.7,2.8l-0.4,1.1l-3.9,10.5l-3.1,11.9l-1.8,12.2l-0.6,11.8v0.5l0.7,12.3
	l1.9,12.2l3.1,11.9l3.6,9.6l0.7,2l0.6,2.9l0.3,2.9v2.9l-0.1,0.9l-0.2,2l-0.6,2.9l-0.9,2.8l-1.2,2.7l-0.2,0.3l-0.6,1l-0.7,1.2
	l-1.8,2.3l-2,2.1l-2.2,1.9l-2.4,1.6l-2.6,1.4l-2.6,1l-0.1,0.1l-2.8,0.8l-2.9,0.5l-2.4,0.1H800l-2.9-0.2l-2.9-0.5l-2.8-0.8l-0.1-0.1
	l-2.6-1l-2.6-1.4l-2.4-1.6l-2.2-1.9l-2-2.1l-1.8-2.3l-0.3-0.5l-0.4-0.7l-0.8-1.3l-1.2-2.7l-0.9-2.8l-0.6-2.9l-0.2-2l-0.1-0.9v-2.9
	l0.3-2.9l0.6-2.9l0.7-2l3.6-9.6l3.1-11.9l0.3-1.7l1.6-10.4l0.7-12.3v-0.5l-0.6-11.8l-1.8-12.2l-3.1-11.9l-3.9-10.5l-0.4-1.1
	l-0.7-2.8l-0.4-2.9l-0.1-2.9l0.1-1.9l0.1-1l0.5-2.9l0.8-2.8l1.1-2.7l1.3-2.3l0.1-0.2l0.3-0.5l1.3-1.9l1.9-2.2l2.1-2l2.3-1.7l2.5-1.5
	l2.6-1.2l1.2-0.4l1.5-0.5l2.8-0.6l2.9-0.3h1.9h1l2.9,0.3L807.1,1762.4 M722.7,1770.1l2.1,0.8l0.6,0.2l0.9,0.5l1.7,0.9l2.4,1.6
	l2.2,1.9l2,2.1l1.8,2.3l1.3,2.2l0.2,0.3l0,0l1.2,2.6l1,2.7l0.7,2.8l0.4,2.9v0.3v2.6l-0.3,2.9l-0.6,2.8l-0.9,2.8l-0.2,0.5l-1,2.2
	l-0.4,1.3l-3.5,10.7l-2,9.1l-0.7,3.2l-0.9,8.4l-0.5,4.2v7.5v5.1l0.6,6.5l0.6,6.1l1.1,5.6l1.4,6.8l3.8,11.9v0.1l1.3,2.7l0.6,1.8
	l0.4,1l0.7,2.9l0.3,2.9v2.9l-0.2,1.9l-0.1,1.1l-0.6,2.9l-0.9,2.8l-1.2,2.7l-0.2,0.4l-1.1,1.8l-0.2,0.3l-1.8,2.4l-2,2.1l-2.2,1.9
	l-2.4,1.7l-1.9,1l-0.7,0.4l-2.7,1.1l-2.6,0.7l-0.3,0.1l-2.9,0.5l-2.4,0.1h-0.5l-2.9-0.2l-2.9-0.5l-0.3-0.1l-2.6-0.7l-2.4-1l-0.3-0.1
	l-2.6-1.4l-2.4-1.7l-2.2-1.9l-2-2.1l-1.8-2.4l-0.2-0.3l0,0l-1.3-2.2l-1.2-2.7l-0.9-2.8l-0.6-2.9l-0.1-1.1l-0.2-1.9v-2.9l0.3-2.9
	l0.7-2.9l0.4-1l0.6-1.8l1.3-2.7l1.1-3.5l2.7-8.5l1.4-6.8l1.1-5.6l0.6-6.1l0.6-6.5v-5.1v-7.5l-0.5-4.2l-0.9-8.4l-0.7-3.2l-2-9.1
	l-2.4-7.4l-1.5-4.6l-1-2.2l-0.2-0.5l-0.9-2.8l-0.6-2.8l-0.3-2.9v-2.6v-0.3l0.4-2.9l0.7-2.8l1-2.7l1.2-2.6l0.2-0.3l0.9-1.5l0.4-0.7
	l1.8-2.3l2-2.1l2.2-1.9l2.4-1.6l2.6-1.3l0.2-0.1l0.4-0.2l2.1-0.8l2.8-0.8l2.9-0.5l2.9-0.2h0.5l2.4,0.1l2.9,0.5L722.7,1770.1
	 M555.9,1793.2l0.7,54.4l0.2,18.2l-0.5,0.6l-3.3,4.4l-8.2,11l-0.5,0.7l-2.6,3.5l-5.5,8.2l-1.9,2.9l-0.9,1.6l-1.8,3.3l-1.2,2.8
	l-0.4,1.1l-0.3,1.1l-0.4,1.7l-0.2,1.4v1.1l0.1,1l0.2,0.9l0.3,0.9l0.4,0.9l0.5,1l0.6,1.1l0.4,0.5l0.7,1l1.1,1.3l0.3,0.3l6.2,6
	l1.9,2.2l1.6,2.3l1.3,2.2l1,2.2l0.7,2.1l0.5,2.3l0.1,1.3l0.1,1v2.3l-0.2,2.5l-0.5,2.5l-0.7,2.4v0.1l-0.3,0.8l-0.6,1.3l-0.9,1.7
	l-1,1.4l-1,1.2l-1.2,1.1l-1.2,1l-1.4,0.9l-1.6,0.8l-1.7,0.7l-0.5,0.1l-1.5,0.4l-2.2,0.4l-2.4,0.2h-2.5l-2-0.2l-1.1-0.2l-0.8-0.2
	l-1.8-0.6l-1.6-0.7l-1.7-0.9l-1.5-1.1l-1.4-1.3l-1.4-1.5l-1.3-1.7l-0.2-0.2l-1.5-2.4l-1.7-3.5l-1.4-3.7l-1.1-4v-0.2l-0.4-2.7
	l-0.1-1.5v-0.6v-1.2l-0.5-40.5l-0.6-46.4l-0.6-46.4l-0.1-7.9l0.1-2.9l0.4-2.8l0.7-2.8l1-2.7l1.3-2.5l1.6-2.4l0.6-0.7l1.3-1.5l2.1-2
	l2.3-1.8l2.4-1.5l2.6-1.2l0.9-0.3l1.8-0.6l2.8-0.6l2.8-0.3h2.9l1.3,0.1l1.5,0.1l2.8,0.6l2.7,0.9l2.6,1.2l2,1.2l0.5,0.3l2.3,1.7
	l2.1,1.9l1.9,2.2l0.5,0.7l1.1,1.7l1.4,2.5l1.1,2.6l0.8,2.7l0.2,1l0.3,1.8L555.9,1793.2 M535.7,1791.2v-0.6l-0.1-0.6l-0.1-0.2
	l-0.1-0.4l-0.2-0.6l-0.3-0.5l-0.4-0.5l-0.4-0.5l-0.5-0.4l-0.5-0.4l-0.5-0.3l-0.5-0.2l0,0l-0.6-0.2l-0.6-0.1l-0.6-0.1h-0.6l-0.6,0.1
	l-0.6,0.1l-0.6,0.2l-0.6,0.3l-0.5,0.3l-0.5,0.4l-0.4,0.4l-0.4,0.5l-0.3,0.5l-0.3,0.5l-0.2,0.6l-0.1,0.4l-0.1,0.2l-0.1,0.6v0.6h-0.2
	l-11.4,0.1l0.1,10.2l0.6,46.4l0.1,7.4l19.4-0.2l15.2-0.2l-0.1-7.4l-0.6-46.4l-0.1-10.2L535.7,1791.2L535.7,1791.2 M988.6,1811
	l-9.7,13l-7.6,10.2l-1.5,2l-0.2,0.2l-0.2,0.5l-0.1,0.6v0.6l0.1,0.6l0.2,0.5l0.3,0.5l0.4,0.4l0.5,0.3l0.6,0.2l0.6,0.1h6.8h11.6h0.5
	h0.3l0.6-0.1l0.5-0.2l0.5-0.3l0.4-0.4l0.3-0.5l0.2-0.6l0.1-0.6v-3.7v-21.6v-0.3l-0.1-0.6l-0.3-0.6l-0.1-0.1l-0.3-0.3l-0.5-0.4
	l-0.5-0.3l-0.6-0.2h-0.6l-0.3,0.1l-0.3,0.1l-0.6,0.2l-0.5,0.3L988.6,1811L988.6,1811 M1149.1,1782.4L1149.1,1782.4l-0.2-0.6
	l-0.3-0.5l-0.2-0.2l-0.4-0.4l-0.4-0.2l-0.1-0.1l-0.6-0.2l-0.6-0.1l-0.6,0.1l-0.6,0.2l-0.1,0.1l-0.4,0.2l-0.4,0.4l-0.3,0.5l-0.2,0.6
	l-0.1,0.6v0.6v0.1l0.2,0.6l0.3,0.5l0.4,0.5l0.5,0.4l0.6,0.3l0.6,0.1h0.3l0.6-0.1l0.6-0.2l0.5-0.3l0.4-0.4l0.3-0.5l0.2-0.6v-0.3
	l0.1-0.3L1149.1,1782.4 M1061.8,1774.1l-0.6,0.4l-0.2,0.2l-0.8,0.7l-0.4,0.5l-0.2,0.3l-0.6,0.8l-0.5,0.9l-0.4,0.9l-0.3,1l-0.2,1
	l-0.1,1v1l0.3,3.2l1,11.6l2,23.2l0.7,8.1l0.1,0.6l0.1,0.6l0.2,0.6l0.3,0.5l0.3,0.5l0.4,0.5l0.2,0.2l0.2,0.2l0.5,0.4l0.5,0.3l0.5,0.3
	l0.6,0.2l0.2,0.1l0.4,0.1l0.6,0.1h0.6h0.6l0.6-0.1l0.6-0.2l0.6-0.2l0.5-0.3l0.5-0.3l0.5-0.4l0.2-0.2l0.2-0.2l0,0l0.4-0.5l0.3-0.5
	l0.3-0.5l0.2-0.6l0.1-0.6l0.1-0.6l0.7-8.1l2-23.2l1-11.6l0.3-3.2v-1l-0.1-1l-0.2-1l-0.3-1l-0.4-0.9l-0.5-0.9l-0.6-0.8l-0.7-0.8
	l-0.8-0.7l-0.2-0.2l-0.6-0.4l-0.9-0.5l-0.2-0.1l-0.7-0.3l-1-0.3l-1-0.2l-1-0.1h-1l-1,0.1l-1,0.2l-1,0.3l-0.9,0.4L1061.8,1774.1
	 M1071.4,1843.2l-0.4-0.4l-0.5-0.4l-0.5-0.3l-0.5-0.3l-0.6-0.2l-0.6-0.2l-0.6-0.1h-0.6h-0.6l-0.6,0.1l-0.4,0.1l-0.2,0.1l-0.6,0.2
	l-0.5,0.3l-0.5,0.3l-0.5,0.4l-0.4,0.4l-0.4,0.5l-0.3,0.5l0,0l-0.3,0.5l-0.2,0.6l-0.1,0.6l-0.1,0.6l-1.8,21l-2,23.2l-0.2,2v1l0.1,1
	l0.2,1l0.3,1l0.4,0.9l0.5,0.9l0.6,0.8l0.2,0.3l0.4,0.5l0.8,0.7l0.8,0.6l0.9,0.5l0.6,0.3l0.3,0.2l1,0.3l1,0.2l1,0.1h1l1-0.1l1-0.2
	l1-0.3l0.3-0.2l0.4-0.2l0.2-0.1l0.9-0.5l0.8-0.6l0.8-0.7l0.7-0.8l0.6-0.8l0.5-0.9l0.4-0.9l0.3-1l0.2-1l0.1-1v-1l-0.2-2l-2-23.2
	l-1.8-21l-0.1-0.6l-0.1-0.6l-0.2-0.6l-0.3-0.5l0,0l-0.3-0.5L1071.4,1843.2L1071.4,1843.2 M1149.1,1893.7L1149.1,1893.7l-0.1-0.2
	l-0.1-0.4l-0.3-0.5l-0.2-0.2l-0.4-0.4l-0.5-0.3l-0.6-0.2l-0.6-0.1l-0.6,0.1l-0.6,0.2l-0.5,0.3l-0.4,0.4l-0.3,0.5l-0.2,0.6v0.1
	l-0.1,0.5v0.6l0.2,0.6l0.3,0.5l0.4,0.5l0.2,0.2l0.2,0.2l0.6,0.3l0.6,0.1h0.3l0.6-0.1l0.6-0.2l0.5-0.3l0,0l0.4-0.4l0.3-0.5l0.2-0.6
	v-0.3l0.1-0.3V1893.7 M623.5,1870.8l-0.6-0.2l-0.6-0.1l-9.8-0.2l-9.1-0.2h-0.3l-0.6,0.1l-0.5,0.2l-0.5,0.3l-0.4,0.4l-0.2,0.4
	l-0.1,0.1l-0.2,0.6l-0.1,0.6l-0.5,25v0.3v0.3l0.1,0.6l0.2,0.4l0.1,0.2l0.4,0.5l0.5,0.4l0.5,0.3l0.6,0.2h0.6l0.6-0.1l0.6-0.2l0.5-0.3
	l0.4-0.4l1.5-2l17.9-22.9l0.1-0.1l0.2-0.2l0.3-0.5l0.1-0.6v-0.6l-0.1-0.6l-0.2-0.5l-0.3-0.5l-0.3-0.3l-0.1-0.1L623.5,1870.8
	 M800.5,1785.7L800.5,1785.7l-0.6-0.1l-0.6,0.1l-0.6,0.2l-0.3,0.2l-0.2,0.1l-0.4,0.4l-0.3,0.5l-0.2,0.6l-0.1,0.6v0.6l0.2,0.6
	l0.3,0.5l0.4,0.5l0.5,0.4l0.6,0.3l0.6,0.1h0.3l0.5-0.1h0.1l0.6-0.2l0.5-0.3l0.4-0.4l0.3-0.5l0.2-0.6l0.1-0.6v-0.6l-0.2-0.6l-0.3-0.5
	l-0.2-0.2l-0.4-0.4l-0.2-0.1l-0.3-0.2L800.5,1785.7 M704.8,1793.5l-0.1,0.6l-0.1,0.4l-0.1,1v1l0.8,9.2l2,23.2l1,11.6l0.2,2.2
	l0.1,0.6l0.1,0.6l0.2,0.6l0.3,0.5l0.3,0.5l0.4,0.5l0.4,0.4l0.1,0.1l0.5,0.4l0.5,0.3l0.5,0.3l0.6,0.2l0.6,0.2l0.6,0.1h0.6h0.5h0.1
	l0.6-0.1l0.6-0.2l0.6-0.2l0.5-0.3l0.5-0.3l0.5-0.4l0.4-0.4l0.4-0.5l0.3-0.5l0.3-0.5l0.2-0.6l0.1-0.6l0.1-0.6l0.2-2.2l1-11.6l2-23.2
	l0.8-9.2v-1l-0.1-1l-0.1-0.4l-0.1-0.6l-0.3-1l-0.4-0.9l-0.5-0.9l-0.6-0.8l-0.7-0.8l-0.8-0.7l-0.8-0.6l-0.9-0.5l-0.9-0.4l-1-0.3
	l-1-0.2l-1-0.1l0,0h-1l-1,0.1l-1,0.2l-1,0.3l-0.9,0.4l-0.9,0.5l-0.8,0.6l-0.8,0.7l-0.7,0.8l-0.6,0.8l-0.5,0.9l-0.4,0.9L704.8,1793.5
	 M800.5,1897.1L800.5,1897.1l-0.6-0.1l-0.6,0.1l-0.6,0.2l-0.5,0.3l-0.4,0.4l-0.3,0.5l-0.2,0.6l-0.1,0.6v0.6l0.2,0.6l0.3,0.5l0.4,0.5
	l0.4,0.3l0.1,0.1l0.6,0.3l0.6,0.1h0.3l0.5-0.1h0.1l0.6-0.2l0.3-0.2l0.2-0.1l0.4-0.4l0.3-0.5l0.2-0.6l0.1-0.6v-0.6l-0.2-0.6l-0.3-0.5
	l-0.2-0.2l-0.4-0.4l-0.5-0.3L800.5,1897.1 M708.2,1863.8l-1,11.6l-2,23.2l-0.7,7.6v1l0.1,1l0.2,1l0.3,0.9v0.1l0.4,0.9l0.5,0.9
	l0.6,0.8l0.7,0.8l0.8,0.7l0.8,0.6l0.9,0.5l0.9,0.4l1,0.3l1,0.2l1,0.1h1l0,0l1-0.1l1-0.2l1-0.3l0.9-0.4l0.9-0.5l0.8-0.6l0.8-0.7
	l0.7-0.8l0.6-0.8l0.5-0.9l0.4-0.9v-0.1l0.3-0.9l0.2-1l0.1-1v-1l-0.7-7.6l-2-23.2l-1-11.6l-0.3-3.7l-0.1-0.6l-0.1-0.6l-0.2-0.6
	l-0.3-0.5l-0.3-0.5l-0.4-0.5l-0.4-0.4l-0.5-0.4l-0.5-0.3l-0.5-0.3l-0.6-0.2l-0.6-0.2l-0.6-0.1h-0.1h-0.5h-0.6l-0.6,0.1l-0.6,0.2
	l-0.6,0.2l-0.5,0.3l-0.5,0.3l-0.5,0.4l-0.4,0.4l-0.4,0.5l-0.3,0.5l-0.1,0.2l-0.2,0.4l-0.2,0.6l-0.1,0.6l-0.1,0.6L708.2,1863.8
	 M536.2,1872.4l-0.6-0.2l-0.6-0.1h-1.9l-11.6,0.1l-5.4,0.1h-0.3l-0.6,0.1l-0.5,0.2l-0.5,0.4l-0.4,0.4l-0.3,0.5l-0.2,0.6l-0.1,0.6
	l0.1,7.7l0.1,11.6l0.1,6v0.3l0.1,0.6l0.3,0.6l0.4,0.5l0.5,0.4l0.5,0.3l0.6,0.2h0.6l0.6-0.1l0.6-0.2l0.5-0.4l0.4-0.5l3.1-4.2l2.6-3.5
	l8.5-11.7l0.3-0.4l4.1-5.6l0.2-0.3l0.2-0.5l0.1-0.6v-0.6l-0.1-0.6l-0.2-0.5l-0.4-0.5l-0.4-0.4L536.2,1872.4"/>
</svg>
